<?xml version="1.0" encoding="UTF-8" standalone="no"?>
<!-- Created with Inkscape (http://www.inkscape.org/) -->

<svg
   xmlns:dc="http://purl.org/dc/elements/1.1/"
   xmlns:cc="http://creativecommons.org/ns#"
   xmlns:rdf="http://www.w3.org/1999/02/22-rdf-syntax-ns#"
   xmlns:svg="http://www.w3.org/2000/svg"
   xmlns="http://www.w3.org/2000/svg"
   xmlns:sodipodi="http://sodipodi.sourceforge.net/DTD/sodipodi-0.dtd"
   xmlns:inkscape="http://www.inkscape.org/namespaces/inkscape"
   width="64px"
   height="64px"
   id="svg3035"
   version="1.1"
   inkscape:version="0.48.0 r9654"
   sodipodi:docname="qhar.svg">
  <defs
     id="defs3037" />
  <sodipodi:namedview
     id="base"
     pagecolor="#ffffff"
     bordercolor="#666666"
     borderopacity="1.0"
     inkscape:pageopacity="0.0"
     inkscape:pageshadow="2"
     inkscape:zoom="5.5"
     inkscape:cx="32"
     inkscape:cy="32"
     inkscape:current-layer="layer1"
     showgrid="true"
     inkscape:document-units="px"
     inkscape:grid-bbox="true"
     inkscape:window-width="1280"
     inkscape:window-height="722"
     inkscape:window-x="0"
     inkscape:window-y="24"
     inkscape:window-maximized="1" />
  <metadata
     id="metadata3040">
    <rdf:RDF>
      <cc:Work
         rdf:about="">
        <dc:format>image/svg+xml</dc:format>
        <dc:type
           rdf:resource="http://purl.org/dc/dcmitype/StillImage" />
      </cc:Work>
    </rdf:RDF>
  </metadata>
  <g
     id="layer1"
     inkscape:label="Layer 1"
     inkscape:groupmode="layer">
    <g
       id="g3928">
      <g
         style="font-size:64px;font-style:normal;font-variant:normal;font-weight:300;font-stretch:normal;text-align:start;line-height:125%;letter-spacing:0px;word-spacing:0px;writing-mode:lr-tb;text-anchor:start;fill:#0000ff;fill-opacity:1;stroke:none;font-family:AR PL UMing TW;-inkscape-font-specification:AR PL UMing TW Light"
         id="text3043">
        <path
           d="m 33.0625,3.2329559 c 0.2083,-0.6666127 0.624966,-0.7291126 1.25,-0.1875 1.333298,1.2917189 2.249963,2.2083847 2.75,2.75 0.374963,0.416717 0.541629,0.75005 0.5,1 -0.0417,0.1250497 -0.333371,0.1875496 -0.875,0.1875 -0.45837,-0.041617 -0.812536,0.020883 -1.0625,0.1875 -0.375035,0.2083825 -1.083368,0.9583818 -2.125,2.25 -1.583365,2.0417121 -3.395863,4.0833761 -5.4375,6.1250001 -1.58336,1.583373 -3.520858,3.250038 -5.8125,5 -0.458355,0.333369 -0.833355,0.354202 -1.125,0.0625 -0.166688,-0.333297 -0.04169,-0.687463 0.375,-1.0625 2.583309,-2.333294 5.083307,-5.333291 7.5,-9 2.416635,-3.5832838 3.770801,-6.0207814 4.0625,-7.3125001 M 29,26.545456 c 2.874968,-4.916632 4.4583,-8.208295 4.75,-9.875 0.124966,-0.708293 0.520799,-0.791626 1.1875,-0.25 1.458297,1.125039 2.458296,1.958371 3,2.5 0.416628,0.375037 0.604128,0.687537 0.5625,0.9375 -0.04171,0.166703 -0.333371,0.250036 -0.875,0.25 -0.458371,0.0417 -0.812537,0.14587 -1.0625,0.3125 -0.458369,0.291702 -1.270869,1.375035 -2.4375,3.25 -0.958367,1.416698 -2.000032,2.895863 -3.125,4.4375 1.083301,0.333361 2.0208,0.750028 2.8125,1.25 0.541632,0.291693 0.541632,0.562527 0,0.8125 -1.250033,0.625026 -1.937532,1.083359 -2.0625,1.375 -0.166698,0.375025 -0.250032,1.833356 -0.25,4.375 l 0,10.9375 c -3.2e-5,5.208338 0.0833,9.583333 0.25,13.125 -3.2e-5,0.374996 -0.145865,0.583329 -0.4375,0.625 l -2.75,1.125 c -0.375028,0.08333 -0.541695,-0.208338 -0.5,-0.875 0.249972,-5.541666 0.395805,-10.208328 0.4375,-14 l 0,-10.9375 c -0.08336,-1.666644 -0.145862,-3.08331 -0.1875,-4.25 -0.208361,0.208358 -0.395861,0.437524 -0.5625,0.6875 -1.875026,2.291688 -4.208357,4.750019 -7,7.375 -0.458354,0.375016 -0.833353,0.416683 -1.125,0.125 -0.250019,-0.29165 -0.166686,-0.645816 0.25,-1.0625 3.20831,-3.249979 6.249974,-7.333308 9.125,-12.25 M 50.75,6.8579559 c 0.499949,4.97e-5 0.833282,-0.083284 1,-0.25 0.208281,-0.2082832 0.499948,-0.5207828 0.875,-0.9375 l 1.625,-2.3125 c 0.291612,-0.3749464 0.624945,-0.3749464 1,0 1.29161,1.1667187 2.562442,2.3958842 3.8125,3.6875 0.416607,0.4167158 0.604107,0.8125487 0.5625,1.1875 -0.08339,0.3333813 -0.395893,0.5208812 -0.9375,0.5625 l -12.8125,0 c -1.125045,4.78e-5 -2.395877,0.145881 -3.8125,0.4375 -0.208375,0.041714 -0.333375,4.73e-5 -0.375,-0.125 -0.541708,-0.833285 -1.020874,-1.5832843 -1.4375,-2.25 -0.25004,-0.4166165 -0.104207,-0.5624497 0.4375,-0.4375 2.541623,0.2500499 3.958289,0.3958831 4.25,0.4375 l 5.8125,0 m 2.5,49.7500001 c -0.08339,1.374998 -0.520886,2.520831 -1.3125,3.4375 -0.833384,0.916662 -1.770884,1.520828 -2.8125,1.8125 -0.500049,0.166661 -0.833382,0.104161 -1,-0.1875 -0.375048,-0.666671 -1.250047,-1.333337 -2.625,-2 -1.166711,-0.583336 -2.958376,-1.083335 -5.375,-1.5 -0.50004,-0.08333 -0.729206,-0.333335 -0.6875,-0.75 -3.9e-5,-0.416667 0.270794,-0.604167 0.8125,-0.5625 1.624958,0.08333 3.562456,0.208333 5.8125,0.375 2.249952,0.124999 3.583284,0.04167 4,-0.25 0.12495,-0.166667 0.18745,-0.520833 0.1875,-1.0625 l 0,-29.625 -8.125,0 c -1.125041,3e-5 -2.395873,0.145863 -3.8125,0.4375 -0.208371,0.0417 -0.333371,3e-5 -0.375,-0.125 -0.541704,-0.833303 -1.02087,-1.583302 -1.4375,-2.25 -0.250036,-0.416634 -0.104203,-0.562467 0.4375,-0.4375 2.541627,0.250032 3.958292,0.395865 4.25,0.4375 l 11.5625,0 c 0.499947,3.2e-5 0.83328,-0.0833 1,-0.25 0.208279,-0.208301 0.499946,-0.5208 0.875,-0.9375 l 1.625,-2.3125 c 0.29161,-0.374964 0.624943,-0.374964 1,0 1.291608,1.166701 2.56244,2.395867 3.8125,3.6875 0.416605,0.416698 0.604105,0.812531 0.5625,1.1875 -0.0834,0.333364 -0.395895,0.520864 -0.9375,0.5625 l -7.4375,0 0,30.3125 m -42.5,-27.0625 -1.875,0 c -1.1250078,2.7e-5 -2.3958398,0.14586 -3.8125,0.4375 -0.2083382,0.04169 -0.3333381,2.6e-5 -0.375,-0.125 -0.5416708,-0.791639 -1.020837,-1.520805 -1.4375,-2.1875 -0.250003,-0.416637 -0.1041698,-0.562471 0.4375,-0.4375 2.5416604,0.208362 3.9583257,0.333362 4.25,0.375 l 2.8125,0 0,-17.0625 -2.375,0 c -1.1250073,4.6e-5 -2.3958393,0.145879 -3.8125,0.4375 -0.2083377,0.04171 -0.3333376,4.5e-5 -0.375,-0.125 C 3.6458297,10.066336 3.1666635,9.3371698 2.75,8.6704559 2.4999975,8.2538376 2.6458307,8.1080044 3.1875,8.2329559 c 2.5416609,0.2083815 3.9583262,0.3333813 4.25,0.375 l 8.5625,0 c 0.249984,4.8e-5 0.499983,-0.1457852 0.75,-0.4375 l 2.25,-2.5625 c 0.291647,-0.2916154 0.583314,-0.2916154 0.875,0 1.083312,1.0833832 1.999978,2.0833822 2.75,3 0.45831,0.5833807 0.541643,1.0833802 0.25,1.5000001 -0.208356,0.250046 -0.583356,0.395879 -1.125,0.4375 l -8,0 0,17.0625 1.5,0 c 0.249985,2.9e-5 0.499984,-0.145804 0.75,-0.4375 l 2.25,-2.5625 c 0.291648,-0.291635 0.583314,-0.291635 0.875,0 1.083313,1.083364 1.999979,2.083363 2.75,3 0.458311,0.583362 0.541644,1.083361 0.25,1.5 -0.208355,0.250027 -0.583355,0.39586 -1.125,0.4375 l -7.25,0 0,17.375 c 3.124983,-0.999989 5.99998,-1.895822 8.625,-2.6875 0.58331,-0.208321 0.937477,-0.124988 1.0625,0.25 0.124976,0.458345 -0.145857,0.812511 -0.8125,1.0625 -5.000018,2.416675 -9.125013,4.27084 -12.375,5.5625 -0.8333427,0.333338 -1.9375083,1.125004 -3.3125,2.375 -0.2083401,0.166669 -0.3958399,0.270836 -0.5625,0.3125 -0.2083395,0.04167 -0.3958393,-0.124997 -0.5625,-0.5 -0.5416719,-0.999996 -1.2708379,-1.874995 -2.1875,-2.625 -0.5416697,-0.458327 -0.7916695,-0.749993 -0.75,-0.875 0.08333,-0.16666 0.3333301,-0.270826 0.75,-0.3125 2.2083275,-0.416659 4.5833251,-0.958325 7.125,-1.625 l 0,-18.3125"
           style=""
           id="path3035" />
      </g>
    </g>
  </g>
</svg>
