<?xml version="1.0" encoding="UTF-8" standalone="no"?>
<!-- Created with Inkscape (http://www.inkscape.org/) -->

<svg
   xmlns:dc="http://purl.org/dc/elements/1.1/"
   xmlns:cc="http://creativecommons.org/ns#"
   xmlns:rdf="http://www.w3.org/1999/02/22-rdf-syntax-ns#"
   xmlns:svg="http://www.w3.org/2000/svg"
   xmlns="http://www.w3.org/2000/svg"
   xmlns:sodipodi="http://sodipodi.sourceforge.net/DTD/sodipodi-0.dtd"
   xmlns:inkscape="http://www.inkscape.org/namespaces/inkscape"
   width="48px"
   height="48px"
   id="svg2816"
   version="1.1"
   inkscape:version="0.47 r22583"
   sodipodi:docname="qhbs.svg">
  <defs
     id="defs2818">
    <inkscape:perspective
       sodipodi:type="inkscape:persp3d"
       inkscape:vp_x="0 : 24 : 1"
       inkscape:vp_y="0 : 1000 : 0"
       inkscape:vp_z="48 : 24 : 1"
       inkscape:persp3d-origin="24 : 16 : 1"
       id="perspective2824" />
  </defs>
  <sodipodi:namedview
     id="base"
     pagecolor="#ffffff"
     bordercolor="#666666"
     borderopacity="1.0"
     inkscape:pageopacity="0.0"
     inkscape:pageshadow="2"
     inkscape:zoom="7"
     inkscape:cx="24"
     inkscape:cy="29.165075"
     inkscape:current-layer="layer1"
     showgrid="true"
     inkscape:grid-bbox="true"
     inkscape:document-units="px"
     inkscape:window-width="1280"
     inkscape:window-height="725"
     inkscape:window-x="0"
     inkscape:window-y="25"
     inkscape:window-maximized="1" />
  <metadata
     id="metadata2821">
    <rdf:RDF>
      <cc:Work
         rdf:about="">
        <dc:format>image/svg+xml</dc:format>
        <dc:type
           rdf:resource="http://purl.org/dc/dcmitype/StillImage" />
        <dc:title />
      </cc:Work>
    </rdf:RDF>
  </metadata>
  <g
     id="layer1"
     inkscape:label="Layer 1"
     inkscape:groupmode="layer">
    <text
       xml:space="preserve"
       style="font-size:40px;font-style:normal;font-weight:normal;fill:#000000;fill-opacity:1;stroke:none;font-family:Bitstream Vera Sans"
       x="4.8571429"
       y="43"
       id="text3598"><tspan
         sodipodi:role="line"
         id="tspan3600" /></text>
    <text
       xml:space="preserve"
       style="font-size:40px;font-style:normal;font-weight:normal;fill:#000000;fill-opacity:1;stroke:none;font-family:Bitstream Vera Sans"
       x="3.7142856"
       y="37.857143"
       id="text3633"><tspan
         sodipodi:role="line"
         id="tspan3635" /></text>
    <text
       xml:space="preserve"
       style="font-size:49.81069946000000215px;font-style:normal;font-weight:normal;fill:#000000;fill-opacity:1;stroke:#000000;font-family:Bitstream Vera Sans"
       x="-2.1460645"
       y="41.045246"
       id="text3658"
       transform="scale(1.0023723,0.99763328)"><tspan
         sodipodi:role="line"
         id="tspan3660"
         x="-2.1460645"
         y="41.045246">璑</tspan></text>
    <path
       style="fill:#0000ff;stroke:#000000"
       d="m 44.859823,46.35 c -1.106617,-2.659316 -2.96615,-5.676259 -4.82329,-7.825396 L 39.053351,37.386835 40.019533,36.462454 40.985714,35.538072 37.45,35.53333 c -1.944643,-0.0026 -3.535714,0.01779 -3.535714,0.04534 0,0.02755 0.481398,0.981135 1.069773,2.119078 1.241027,2.400197 2.06376,4.507017 2.654041,6.796356 0.230473,0.893867 0.419043,1.675277 0.419043,1.736468 0,0.136745 -2.852152,1.207759 -2.951566,1.108346 -0.03921,-0.03921 -0.191646,-0.62203 -0.338741,-1.295147 -0.564196,-2.581803 -1.786847,-5.67276 -3.090763,-7.813686 L 31.102751,37.288735 32.401376,36.444371 33.7,35.6 l -9.035714,-0.03678 -9.035715,-0.03678 0,-1.570364 0,-1.570363 2,0 2,0 0,-4.357143 0,-4.357143 -2.428571,0 -2.428571,0 0,-1.571428 0,-1.571429 2.428571,0 2.428571,0 0,-4.869047 c 0,-3.500019 -0.04452,-4.854208 -0.158344,-4.816267 -0.08709,0.02903 -0.590143,1.046887 -1.117898,2.261905 -0.527755,1.215018 -1.419682,3.122135 -1.982061,4.238039 l -1.022507,2.028916 -1.466738,-0.518502 c -0.806705,-0.285175 -1.483185,-0.52892 -1.503287,-0.541655 -0.0201,-0.01274 0.284151,-0.613383 0.676118,-1.334772 2.111151,-3.885433 4.501389,-10.0325187 5.933951,-15.2606134 l 0.398647,-1.45485371 0.87106,0.32934727 c 1.514178,0.57251014 1.859209,0.74135654 2.335345,1.14283944 0.639835,0.5395151 0.607545,0.904231 -0.10483,1.1840601 -0.542978,0.2132877 -0.585482,0.2767322 -0.925438,1.381365 -0.195977,0.6367953 -0.511467,1.656024 -0.701088,2.2649526 l -0.344766,1.1071428 11.627346,0 11.627348,0 0,1.5714286 0,1.5714283 -2,0 -2,0 0,4.857143 0,4.857143 3.071428,0 3.071429,0 0,1.571429 0,1.571428 -3.071429,0 -3.071428,0 0,4.357143 0,4.357143 2.714285,0 2.714286,0 0,1.567031 0,1.567032 -1.712874,0.04011 -1.712875,0.04011 0.933256,1.142857 c 1.85283,2.268958 3.830007,5.568444 4.918312,8.20761 0.35071,0.850481 0.401591,1.094413 0.255954,1.227074 -0.163576,0.149 -2.359426,1.493887 -2.43913,1.493887 -0.01812,0 -0.280384,-0.594643 -0.58282,-1.321428 z M 25.2,28.028571 l 0,-4.357143 -1.214286,0 -1.214285,0 0,4.357143 0,4.357143 1.214285,0 1.214286,0 0,-4.357143 z m 5.857143,0 0,-4.357143 -1.357143,0 -1.357143,0 0,4.357143 0,4.357143 1.357143,0 1.357143,0 0,-4.357143 z m 5.714286,0 0,-4.357143 -1.285715,0 -1.285714,0 0,4.357143 0,4.357143 1.285714,0 1.285715,0 0,-4.357143 z M 25.2,15.671428 l 0,-4.857143 -1.214286,0 -1.214285,0 0,4.857143 0,4.857143 1.214285,0 1.214286,0 0,-4.857143 z m 5.857143,0 0,-4.857143 -1.357143,0 -1.357143,0 0,4.857143 0,4.857143 1.357143,0 1.357143,0 0,-4.857143 z m 5.714286,0 0,-4.857143 -1.285715,0 -1.285714,0 0,4.857143 0,4.857143 1.285714,0 1.285715,0 0,-4.857143 z"
       id="path6140" />
    <path
       style="fill:#0000ff;stroke:#000000"
       d="m 13.805591,45.084062 -1.32298,-0.883548 0.756836,-0.800257 c 1.617252,-1.710036 3.187769,-4.062681 4.18945,-6.275826 0.331756,-0.732991 0.629874,-1.359393 0.662485,-1.392004 0.03261,-0.03261 0.708959,0.203315 1.502998,0.524278 l 1.443706,0.58357 -0.49697,1.094148 c -1.185851,2.610818 -3.025158,5.47112 -4.616064,7.178429 l -0.796481,0.854757 -1.32298,-0.883547 z"
       id="path6142" />
    <path
       style="fill:#0000ff;stroke:#000000"
       d="M 25.847172,46.570407 C 25.564574,43.948677 25.416881,43.016279 25.059854,41.6 c -0.327291,-1.298321 -0.953471,-3.136272 -1.495923,-4.390808 -0.08928,-0.206474 0.126444,-0.356397 1.289609,-0.896259 1.064286,-0.493968 1.424678,-0.604987 1.513835,-0.466335 0.273842,0.425866 1.265635,3.144842 1.60361,4.396259 0.477168,1.766804 0.943301,4.522186 0.943301,5.575998 0,0.93515 0.113022,0.8442 -1.5,1.207072 -0.55,0.12373 -1.10753,0.258053 -1.238956,0.298497 -0.198065,0.06095 -0.25422,-0.06808 -0.328158,-0.754017 l 0,0 z"
       id="path6144" />
    <path
       style="fill:#0000ff;stroke:#000000"
       d="m 2.3138729,40.278571 c -0.5825932,-0.621686 -1.680435,-3.0882 -1.46876687,-3.299869 0.0409295,-0.04093 0.78926887,-0.221727 1.66297607,-0.401772 0.8737073,-0.180046 1.7082432,-0.365342 1.854524,-0.41177 0.2540655,-0.08064 0.2659653,-0.365222 0.2659653,-6.360502 l 0,-6.276087 -1.9285714,0 -1.92857143,0 0,-1.571429 0,-1.571428 1.92857143,0 1.9285714,0 0,-6.071429 0,-6.0714283 -2.2857143,0 -2.28571424,0 0,-1.5714286 0,-1.5714285 6.50000004,0 6.5000001,0 0,1.5714285 0,1.5714286 -2.642857,0 -2.6428574,0 0,6.0714283 0,6.071429 2.5000004,0 2.5,0 0,1.571428 0,1.571429 -2.5,0 -2.5000004,0 0,5.857143 c 0,3.221428 0.025921,5.857143 0.057603,5.857143 0.1587295,0 3.1867966,-1.096207 4.4160096,-1.598663 0.771201,-0.315239 1.422399,-0.550572 1.447106,-0.522963 0.02471,0.02761 0.07351,0.773007 0.10846,1.656443 l 0.06354,1.606246 -1.449373,0.559832 c -1.826439,0.705478 -4.6205847,1.589666 -6.9272684,2.192088 -1.4701117,0.383938 -1.7931166,0.516002 -1.8361767,0.750741 -0.070774,0.385817 -0.4431666,0.784847 -0.7324549,0.784847 -0.1302653,0 -0.4025149,-0.176786 -0.6049991,-0.392857 z"
       id="path6146" />
  </g>
</svg>
