<?xml version="1.0" encoding="UTF-8" standalone="no"?>
<!-- Created with Inkscape (http://www.inkscape.org/) -->

<svg
   xmlns:dc="http://purl.org/dc/elements/1.1/"
   xmlns:cc="http://creativecommons.org/ns#"
   xmlns:rdf="http://www.w3.org/1999/02/22-rdf-syntax-ns#"
   xmlns:svg="http://www.w3.org/2000/svg"
   xmlns="http://www.w3.org/2000/svg"
   xmlns:sodipodi="http://sodipodi.sourceforge.net/DTD/sodipodi-0.dtd"
   xmlns:inkscape="http://www.inkscape.org/namespaces/inkscape"
   width="48px"
   height="48px"
   id="svg2816"
   version="1.1"
   inkscape:version="0.47 r22583"
   sodipodi:docname="qhcj.svg">
  <defs
     id="defs2818">
    <inkscape:perspective
       sodipodi:type="inkscape:persp3d"
       inkscape:vp_x="0 : 24 : 1"
       inkscape:vp_y="0 : 1000 : 0"
       inkscape:vp_z="48 : 24 : 1"
       inkscape:persp3d-origin="24 : 16 : 1"
       id="perspective2824" />
  </defs>
  <sodipodi:namedview
     id="base"
     pagecolor="#ffffff"
     bordercolor="#666666"
     borderopacity="1.0"
     inkscape:pageopacity="0.0"
     inkscape:pageshadow="2"
     inkscape:zoom="7"
     inkscape:cx="-5"
     inkscape:cy="24"
     inkscape:current-layer="layer1"
     showgrid="true"
     inkscape:grid-bbox="true"
     inkscape:document-units="px"
     inkscape:window-width="1280"
     inkscape:window-height="725"
     inkscape:window-x="0"
     inkscape:window-y="25"
     inkscape:window-maximized="1" />
  <metadata
     id="metadata2821">
    <rdf:RDF>
      <cc:Work
         rdf:about="">
        <dc:format>image/svg+xml</dc:format>
        <dc:type
           rdf:resource="http://purl.org/dc/dcmitype/StillImage" />
        <dc:title />
      </cc:Work>
    </rdf:RDF>
  </metadata>
  <g
     id="layer1"
     inkscape:label="Layer 1"
     inkscape:groupmode="layer">
    <text
       xml:space="preserve"
       style="font-size:51.37366486px;font-style:normal;font-weight:normal;fill:#000000;fill-opacity:1;stroke:none;font-family:Bitstream Vera Sans"
       x="-2.0665739"
       y="42.420673"
       id="text3598"
       transform="scale(0.972682,1.0280852)"><tspan
         sodipodi:role="line"
         id="tspan3600"
         x="-2.0665739"
         y="42.420673">瑲</tspan></text>
    <path
       style="fill:#0000ff"
       d="m 24.294116,44.55 c 0.09037,-3.754993 0.05148,-3.938419 -0.522443,-2.464286 -0.611946,1.571783 -2.124919,3.970509 -3.05307,4.840452 l -0.363232,0.340453 -1.291971,-0.96196 c -0.710584,-0.529078 -1.291971,-0.983353 -1.291971,-1.009502 0,-0.02615 0.320594,-0.376684 0.712432,-0.77897 0.848568,-0.871191 1.681502,-2.237541 2.279916,-3.739986 0.640047,-1.606968 0.673967,-1.565448 -0.956634,-1.171 -3.20276,0.774762 -9.9218449,2.014452 -14.2500001,2.629168 C 4.4869916,42.38636 4.4006534,42.424821 4.2,42.838953 3.7312821,43.806344 3.2060877,43.650599 2.5457121,42.348377 2.2380954,41.741774 1.6285714,39.807926 1.6285714,39.438547 c 0,-0.09211 1.2639297,-0.311551 3.1785715,-0.551866 1.7482142,-0.219425 3.4357142,-0.442275 3.75,-0.49522 l 0.5714285,-0.09626 0.037141,-6.604741 0.037141,-6.604742 -3.8585695,0 -3.8585696,0 0,-1.642857 0,-1.642857 3.8571428,0 3.8571429,0 0,-6.5 0,-6.5 -4.5,0 -4.5,0 0,-1.6428571 0,-1.6428572 11,0 11,0 0,1.6428572 0,1.6428571 -5.001456,0 -5.001456,0 0.03717,6.464286 0.03717,6.464285 4.821428,0.03762 4.821429,0.03761 0,1.640957 0,1.640957 -4.858629,0 -4.858629,0 0.0372,6.321429 0.0372,6.321428 L 12.7,37.684904 c 0.547619,-0.0558 5.14304,-1.039695 7.60591,-1.628455 1.307801,-0.312635 1.913209,-0.521198 1.961559,-0.675753 0.182471,-0.583287 0.67566,-3.86845 0.869632,-5.79269 0.118933,-1.179832 0.255632,-4.025506 0.303773,-6.32372 l 0.08753,-4.178572 8.978654,0 8.978654,0 2.86e-4,2.75 c 1.31e-4,1.5125 0.04266,4.823215 0.09452,7.357143 l 0.09427,4.607143 -7.867672,0 -7.867673,0 -0.09442,0.607143 c -0.05193,0.333928 -0.1262,0.719643 -0.165041,0.857143 -0.06668,0.236048 0.395136,0.25 8.275188,0.25 l 8.345808,0 0.09239,1.092983 c 0.05082,0.60114 0.09239,3.429711 0.09239,6.285714 l -4.6e-5,5.192731 -9.138345,0 -9.138348,0 0.08509,-3.535714 0,0 z m 14.95133,0.142857 c 0.03427,-0.05893 0.02915,-1.376786 -0.01137,-2.928571 l -0.07367,-2.821429 -5.828857,0 -5.828858,0 -0.0442,2.821429 c -0.02431,1.551785 -0.02434,2.869643 -5.9e-5,2.928571 0.02428,0.05893 2.672272,0.107143 5.884426,0.107143 3.212154,0 5.868319,-0.04821 5.902589,-0.107143 l 7e-6,0 z M 38.456009,29.264286 38.414286,28.157143 32.45,28.119861 c -4.720523,-0.02951 -5.965816,2.86e-4 -5.971621,0.142858 -0.004,0.09907 -0.05559,0.614067 -0.114558,1.144424 l -0.107222,0.964286 6.120567,0 6.120567,0 -0.04172,-1.107143 z m -0.113152,-5.678572 0,-1.214285 -5.857143,0 -5.857143,0 0,1.214285 0,1.214286 5.857143,0 5.857143,0 0,-1.214286 z"
       id="path5622" />
    <path
       style="fill:#0000ff;stroke:#000000"
       d="m 18.982363,17.783463 c -0.66497,-0.676577 -1.06651,-1.186756 -0.96422,-1.225096 0.09641,-0.03614 0.932122,-0.568547 1.857143,-1.183137 4.472608,-2.971627 8.27986,-7.4296011 11.861028,-13.8882719 l 0.846863,-1.52732766 1.12984,0.71943512 c 1.881162,1.19784514 2.392339,1.78893804 1.924227,2.22505034 -0.276314,0.2574265 -0.271581,0.2738492 0.382802,1.3282667 2.710623,4.3676628 6.459747,8.0000904 10.27307,9.9533034 0.889735,0.45573 1.618481,0.874638 1.619435,0.930908 10e-4,0.05627 -0.486082,0.64912 -1.082304,1.317445 l -1.08404,1.215137 -0.737388,-0.370746 c -0.843763,-0.424229 -2.918246,-1.748387 -3.68169,-2.350053 -0.283652,-0.223544 -0.556866,-0.365307 -0.607143,-0.315028 -0.05028,0.05028 -0.09141,0.498555 -0.09141,0.996175 l 0,0.904762 -7.714285,0 -7.714286,0 0,-0.575547 0,-0.575546 -1.125231,0.930926 c -1.266919,1.048148 -3.561845,2.648738 -3.79776,2.648738 -0.08533,0 -0.667918,-0.521727 -1.294646,-1.159394 z m 20.07478,-4.648023 c 0,-0.05122 -0.564887,-0.678007 -1.255306,-1.392857 C 36.417511,10.309271 34.938994,8.4487763 33.842857,6.7607901 33.45,6.1558137 33.096429,5.6605533 33.057143,5.6602111 c -0.03929,-3.428e-4 -0.339894,0.4346113 -0.66802,0.9665629 -0.88635,1.436939 -2.732421,3.945257 -3.875904,5.26632 -0.554391,0.640487 -0.969519,1.202987 -0.922506,1.25 0.116711,0.116711 11.46643,0.109136 11.46643,-0.0077 z"
       id="path5624" />
    <path
       style="fill:#0000ff;stroke:#000000;stroke-width:1;stroke-miterlimit:4;stroke-dasharray:none"
       d="m 24.31436,44.657277 c 0.02361,-1.885788 -0.01119,-3.428706 -0.07733,-3.428706 -0.06614,0 -0.41802,0.626786 -0.781946,1.392858 -0.963745,2.028701 -2.682105,4.464285 -3.149653,4.464285 -0.17447,0 -2.391145,-1.704503 -2.391145,-1.838661 0,-0.06134 0.167674,-0.267383 0.37261,-0.457866 0.959685,-0.892001 2.622123,-3.784278 2.860647,-4.9769 0.114131,-0.570658 0.09316,-0.570227 -2.797136,0.0575 -2.814358,0.611237 -7.707814,1.514801 -10.8646927,2.00614 -3.0333466,0.47211 -2.9481549,0.446591 -3.379716,1.012397 -0.2026644,0.265705 -0.4460734,0.483103 -0.540909,0.483103 -0.3316782,0 -0.8140792,-0.688158 -1.2259429,-1.748838 C 1.9652001,40.65956 1.6503476,39.371461 1.7888846,39.371407 1.8185694,39.371396 3.225,39.17949 4.9142857,38.944951 6.6035714,38.710411 8.2589286,38.481481 8.5928571,38.436219 L 9.2,38.353921 l 0,-6.634102 0,-6.634105 -3.8571429,0 -3.8571428,0 0,-1.642857 0,-1.642857 3.8571428,0 3.8571429,0 0,-6.5 0,-6.5 -4.5,0 -4.5,0 0,-1.6428571 0,-1.6428572 11,0 11,0 0,1.6428572 0,1.6428571 -5,0 -5,0 0,6.5 0,6.5 4.857143,0 4.857143,0 0,1.642857 0,1.642857 -4.857143,0 -4.857143,0 0,6.357143 c 0,3.496429 0.05426,6.357143 0.120569,6.357143 0.518272,0 8.256578,-1.7242 9.324081,-2.077531 l 0.658934,-0.2181 0.303899,-1.81647 c 0.581251,-3.474266 0.873027,-7.069338 0.877866,-10.81647 0.0013,-1.021429 0.04338,-2.291072 0.09347,-2.821429 l 0.09107,-0.964286 8.907913,0 8.907914,0 4.29e-4,5.107143 c 2.86e-4,2.808929 0.04247,6.119643 0.09379,7.357143 l 0.09332,2.25 -7.876787,0 -7.876788,0 -0.07459,0.321429 c -0.04102,0.176785 -0.09046,0.546428 -0.109864,0.821428 l -0.03527,0.5 8.24074,0.03687 c 7.6928,0.03442 8.245493,0.05342 8.312206,0.285714 0.0393,0.136863 0.11622,2.964914 0.170921,6.284557 l 0.09946,6.035714 -9.125947,1.35e-4 -9.125948,1.34e-4 0.04293,-3.428706 4.7e-5,0 z m 15.005241,-0.642991 c 0.0265,-0.392857 0.0037,-1.694643 -0.05075,-2.892857 l -0.09893,-2.178572 -5.820276,0 -5.820274,0 -0.09261,1.607143 c -0.120544,2.091993 -0.11919,4.034239 0.0029,4.156326 0.05324,0.05324 2.73717,0.08003 5.964286,0.05952 l 5.86748,-0.03728 0.04817,-0.714285 z m -0.833887,-14.785715 0,-1.142857 -5.91108,0 c -4.558538,0 -5.943293,0.04086 -6.051864,0.178572 -0.07743,0.09821 -0.179313,0.6125 -0.226403,1.142857 l -0.08562,0.964286 6.137483,0 6.137481,0 0,-1.142858 z m -0.142857,-5.642857 0,-1.214285 -5.857143,0 -5.857143,0 0,1.214285 0,1.214286 5.857143,0 5.857143,0 0,-1.214286 z"
       id="path5626" />
  </g>
</svg>
