<?xml version="1.0" encoding="UTF-8" standalone="no"?>
<!-- Created with Inkscape (http://www.inkscape.org/) -->

<svg
   xmlns:dc="http://purl.org/dc/elements/1.1/"
   xmlns:cc="http://creativecommons.org/ns#"
   xmlns:rdf="http://www.w3.org/1999/02/22-rdf-syntax-ns#"
   xmlns:svg="http://www.w3.org/2000/svg"
   xmlns="http://www.w3.org/2000/svg"
   xmlns:sodipodi="http://sodipodi.sourceforge.net/DTD/sodipodi-0.dtd"
   xmlns:inkscape="http://www.inkscape.org/namespaces/inkscape"
   width="48px"
   height="48px"
   id="svg2816"
   version="1.1"
   inkscape:version="0.47 r22583"
   sodipodi:docname="qhdy.svg">
  <defs
     id="defs2818">
    <inkscape:perspective
       sodipodi:type="inkscape:persp3d"
       inkscape:vp_x="0 : 24 : 1"
       inkscape:vp_y="0 : 1000 : 0"
       inkscape:vp_z="48 : 24 : 1"
       inkscape:persp3d-origin="24 : 16 : 1"
       id="perspective2824" />
  </defs>
  <sodipodi:namedview
     id="base"
     pagecolor="#ffffff"
     bordercolor="#666666"
     borderopacity="1.0"
     inkscape:pageopacity="0.0"
     inkscape:pageshadow="2"
     inkscape:zoom="7"
     inkscape:cx="-5"
     inkscape:cy="29.271429"
     inkscape:current-layer="layer1"
     showgrid="true"
     inkscape:grid-bbox="true"
     inkscape:document-units="px"
     inkscape:window-width="1280"
     inkscape:window-height="725"
     inkscape:window-x="0"
     inkscape:window-y="25"
     inkscape:window-maximized="1" />
  <metadata
     id="metadata2821">
    <rdf:RDF>
      <cc:Work
         rdf:about="">
        <dc:format>image/svg+xml</dc:format>
        <dc:type
           rdf:resource="http://purl.org/dc/dcmitype/StillImage" />
        <dc:title />
      </cc:Work>
    </rdf:RDF>
  </metadata>
  <g
     id="layer1"
     inkscape:label="Layer 1"
     inkscape:groupmode="layer">
    <text
       xml:space="preserve"
       style="font-size:40px;font-style:normal;font-weight:normal;fill:#000000;fill-opacity:1;stroke:none;font-family:Bitstream Vera Sans"
       x="4.8571429"
       y="43"
       id="text3598"><tspan
         sodipodi:role="line"
         id="tspan3600" /></text>
    <text
       xml:space="preserve"
       style="font-size:40px;font-style:normal;font-weight:normal;fill:#000000;fill-opacity:1;stroke:none;font-family:Bitstream Vera Sans"
       x="3.7142856"
       y="37.857143"
       id="text3633"><tspan
         sodipodi:role="line"
         id="tspan3635" /></text>
    <text
       xml:space="preserve"
       style="font-size:40px;font-style:normal;font-weight:normal;fill:#000000;fill-opacity:1;stroke:none;font-family:Bitstream Vera Sans"
       x="0.71428573"
       y="23"
       id="text3658"><tspan
         sodipodi:role="line"
         id="tspan3660" /></text>
    <text
       xml:space="preserve"
       style="font-size:52.62891006px;font-style:normal;font-weight:normal;fill:#000000;fill-opacity:1;stroke:none;font-family:Bitstream Vera Sans"
       x="-1.7164183"
       y="43.588184"
       id="text3683"
       transform="scale(0.98849634,1.0116375)"><tspan
         sodipodi:role="line"
         id="tspan3685"
         x="-1.7164183"
         y="43.588184">㻛</tspan></text>
    <path
       style="fill:#0000ff"
       d="M 2.2899166,39.402045 C 2.00562,38.861028 1.4835397,38.096412 1.1297381,37.702901 0.64089853,37.159194 0.53735084,36.967895 0.69842849,36.906084 0.8150097,36.861348 2.0523413,36.62609 3.4480543,36.383288 4.8437673,36.140485 6.3714286,35.862294 6.8428571,35.765084 L 7.7,35.588338 l 0.037022,-7.334187 0.037022,-7.334186 -2.322736,0.09627 C 4.1738026,21.069191 2.8407691,21.12577 2.4890107,21.141971 1.8728576,21.17035 1.8388724,21.150071 1.5604393,20.587934 1.4014834,20.267012 1.1197727,19.79724 0.93441551,19.543995 0.74905833,19.29075 0.62300017,19.057952 0.65428626,19.026665 c 0.0312861,-0.03129 0.58433094,0.0352 1.22898864,0.147739 0.6446577,0.112543 2.2171444,0.222198 3.494415,0.24368 L 7.7,19.457142 l 0.037216,-6.25 0.037216,-6.2499996 -1.680073,0.0095 C 5.1703186,6.9718664 3.807281,7.0559331 3.0653863,7.1534567 1.5376134,7.3542854 1.6532647,7.4053914 0.86673967,6.1818811 0.61789,5.794773 0.35227376,5.3960707 0.27648137,5.2958759 0.05602816,5.0044447 0.27192391,4.9271149 0.86415117,5.0853837 1.1667252,5.1662446 2.1214286,5.2989874 2.9857143,5.3803679 4.9798397,5.568133 14.128223,5.5770373 14.474809,5.3915507 c 0.140814,-0.075361 0.71838,-0.6860757 1.283481,-1.3571429 0.565101,-0.6710675 1.103966,-1.2201225 1.197477,-1.2201225 0.09351,0 0.581619,0.4339286 1.084683,0.9642857 1.737943,1.8322334 2.059123,2.5039574 1.413477,2.9561851 -0.271191,0.1899506 -0.979621,0.2223863 -4.857143,0.2223863 l -4.539641,0 0,6.2857146 0,6.285714 0.464286,-0.0021 c 0.684934,-0.0031 0.98417,-0.22421 2.191137,-1.619014 l 1.093758,-1.263976 0.849973,0.835404 c 1.170542,1.150479 2.138486,2.458559 2.086299,2.819425 -0.08192,0.566475 -0.580693,0.654501 -3.721167,0.656732 l -2.964286,0.0021 0,7 c 0,5.252532 0.04176,7 0.16727,7 0.092,0 1.881013,-0.482142 3.975587,-1.071428 2.094574,-0.589286 3.915731,-1.071429 4.047016,-1.071429 0.250087,0 0.316095,0.37121 0.120724,0.678917 -0.218351,0.343898 -10.7289049,4.499549 -12.7383653,5.036482 -0.999081,0.266957 -1.64226,0.651531 -2.1393801,1.279197 -0.251273,0.317259 -0.507781,0.576833 -0.5700176,0.576833 -0.062237,0 -0.3457639,-0.44265 -0.6300604,-0.983669 z"
       id="path5098" />
    <path
       style="fill:#0000ff"
       d="m 38.842141,47.331324 c -0.946184,-0.983642 -1.747848,-1.42151 -3.683471,-2.011912 -1.272844,-0.38824 -1.699893,-0.67819 -1.416401,-0.961681 0.187581,-0.187581 0.413007,-0.18531 2.982552,0.03006 2.051942,0.171988 3.668636,0.09265 4.420633,-0.216944 0.245,-0.100866 0.62077,-0.413243 0.835047,-0.694175 0.899633,-1.17948 1.197253,-3.151954 1.641146,-10.876675 0.158026,-2.75 0.326144,-5.466072 0.373596,-6.035715 l 0.08628,-1.035714 -1.854053,0 -1.854053,0 L 39.77016,27.35 c -1.814734,5.479298 -4.103844,9.938242 -6.624527,12.903875 -1.913937,2.251787 -5.298761,4.708892 -9.173616,6.659296 -1.700891,0.856141 -2.23735,1.065719 -2.536044,0.990751 -0.29501,-0.07404 -0.378346,-0.181402 -0.376643,-0.485215 0.0012,-0.214575 0.04942,-0.462562 0.107143,-0.551082 0.05773,-0.08852 0.881687,-0.549688 1.831026,-1.02482 5.237665,-2.62138 8.817007,-6.155181 11.604738,-11.457091 1.126266,-2.142016 2.628904,-6.219706 3.092786,-8.392857 l 0.09911,-0.464286 -2.279703,0 -2.279703,0 -0.529883,1.535714 c -1.730236,5.014603 -4.473541,8.874595 -8.147698,11.46429 -2.031291,1.431737 -5.092395,3.28571 -5.425053,3.28571 -0.396505,0 -0.646376,-0.261168 -0.646376,-0.6756 0,-0.260218 0.237032,-0.479738 1.087478,-1.007143 1.955628,-1.212782 4.047073,-2.743044 5.077459,-3.715058 2.611949,-2.463982 4.930691,-6.507463 5.752939,-10.032122 l 0.199642,-0.855791 -1.766413,0 -1.766413,0 -1.159581,1.607143 c -1.988723,2.756307 -5.245422,6.25 -5.826033,6.25 -0.226209,0 -0.456221,-0.247879 -0.456221,-0.49166 0,-0.02185 0.424303,-0.546946 0.942895,-1.166887 0.518592,-0.619942 1.456596,-1.898596 2.084455,-2.841453 1.270568,-1.908017 3.862382,-7.035553 4.531175,-8.964286 l 0.43344,-1.25 -0.853125,0 -0.853125,0 0,0.764444 0,0.764443 -1.018456,0.449843 c -1.630799,0.720307 -1.612982,0.73317 -1.504089,-1.085873 0.209072,-3.4925 0.27705,-14.6759411 0.102978,-16.9413764 -0.09563,-1.2445429 -0.139032,-2.29764341 -0.09645,-2.34022337 0.04258,-0.0425799 0.56833,0.38103957 1.168333,0.94137667 l 1.090916,1.0187948 6.759558,0 c 3.717757,0 6.860623,-0.038782 6.984147,-0.086183 0.123525,-0.047401 0.450832,-0.4586183 0.72735,-0.9138172 0.276519,-0.4551988 0.595069,-0.86305601 0.70789,-0.90634936 0.224522,-0.086157 2.321183,1.34458356 3.150028,2.14954676 0.282561,0.2744208 0.489454,0.5730359 0.45976,0.663589 -0.0297,0.090553 -0.274033,0.305664 -0.542976,0.4780242 -0.268943,0.1723601 -0.671999,0.45562 -0.89568,0.6294663 l -0.406692,0.3160843 0.07921,7.2991051 c 0.04357,4.014508 0.120137,7.565024 0.170151,7.890034 l 0.09094,0.590928 -1.121089,0.373357 C 41.203516,20.93199 40.618889,21.1 40.520941,21.1 c -0.12824,0 -0.178084,-0.339868 -0.178084,-1.214286 l 0,-1.214286 -5.607143,0.0039 -5.607143,0.0039 0.509456,0.46042 c 0.280201,0.253231 0.816482,0.730189 1.191736,1.059904 0.375253,0.329717 0.645003,0.6598 0.599443,0.733517 -0.04556,0.07372 -0.366783,0.176612 -0.71383,0.228655 -0.351956,0.05278 -0.786403,0.23865 -0.982422,0.420314 -0.344223,0.319004 -1.675811,2.247486 -1.675811,2.426994 0,0.12286 14.263738,0.0886 14.70807,-0.03533 0.206633,-0.05763 0.62145,-0.477639 1.008851,-1.021474 0.36186,-0.50798 0.783663,-0.942186 0.937342,-0.964903 0.190185,-0.02811 0.791827,0.443367 1.884004,1.476415 0.882524,0.834748 1.60459,1.571016 1.60459,1.636153 0,0.06514 -0.411497,0.348555 -0.914439,0.629815 l -0.914438,0.511384 -0.08602,0.82234 c -0.04731,0.452287 -0.214214,2.975911 -0.370897,5.608054 -0.560054,9.408493 -0.818263,10.937633 -2.101795,12.447033 -0.944372,1.110557 -2.04435,2.015707 -3.165608,2.60491 l -0.948234,0.498283 -0.856426,-0.89033 0,0 z m 1.500716,-33.302753 0,-3.071429 -7.214286,0 -7.214285,0 0,3.071429 0,3.071429 7.214285,0 7.214286,0 0,-3.071429 z m 0,-7.5 0,-2.8571429 -7.214286,0 -7.214285,0 0,2.8571429 0,2.8571429 7.214285,0 7.214286,0 0,-2.8571429 z"
       id="path5100" />
    <path
       style="fill:#0000ff"
       d="M 2.3515751,39.421428 C 2.0839423,38.969642 1.583023,38.230357 1.2384211,37.778571 0.89381923,37.326785 0.63519399,36.957142 0.6636983,36.957142 c 0.0285043,0 1.5911903,-0.289278 3.4726353,-0.642842 1.8814451,-0.353563 3.4690235,-0.642849 3.5279521,-0.642858 0.058929,-7e-6 0.1071429,-3.343631 0.1071429,-7.430274 l 0,-7.43026 -0.5357143,0.06768 c -0.2946429,0.03722 -1.607287,0.105023 -2.9169869,0.15067 l -2.3812725,0.083 -0.5774018,-0.964119 C 1.0424821,19.617868 0.80135989,19.165307 0.82422599,19.14244 c 0.0228661,-0.02287 0.51855531,0.01814 1.10153161,0.09113 0.5829761,0.07299 2.1367424,0.17844 3.4528138,0.23434 l 2.3928572,0.101636 0,-6.306201 0,-6.3062006 -1.6785715,0.00109 c -0.9232142,6e-4 -2.222199,0.06358 -2.8866325,0.1399649 C 2.2020826,7.2136307 1.9426387,7.2006923 1.6692227,7.0215433 1.2902931,6.773259 0.25891536,5.279181 0.38169544,5.156401 c 0.0451824,-0.045182 0.5209989,-0.0027 1.05737006,0.0944 0.6285866,0.1137968 3.1043596,0.198906 6.9653505,0.2394466 l 5.99013,0.062896 1.224155,-1.2985777 c 0.673286,-0.7142177 1.290455,-1.2983178 1.371485,-1.2980001 0.177117,6.943e-4 1.553815,1.4086109 2.185853,2.2354209 0.519262,0.6792803 0.586025,1.2550897 0.171258,1.477066 -0.168524,0.090192 -2.086886,0.1873427 -4.785714,0.2423615 l -4.50444,0.091827 0,6.2626644 0,6.262665 0.435666,0 c 0.685043,0 1.157612,-0.3274 2.204026,-1.52697 0.535378,-0.613737 1.016923,-1.133516 1.070099,-1.155062 0.144195,-0.05842 1.997229,1.866525 2.45977,2.555233 0.474119,0.705946 0.507095,1.06043 0.118015,1.268659 -0.156923,0.08398 -1.626182,0.192189 -3.285714,0.24198 l -3.001862,0.09007 0,6.910387 c 0,5.397545 0.03909,6.92497 0.178571,6.977002 0.09821,0.03664 1.946429,-0.406065 4.107143,-0.983785 3.781343,-1.011034 4.237616,-1.076388 4.047012,-0.57968 -0.140153,0.365233 -7.776724,3.462959 -12.3173461,4.996452 -1.3736496,0.463918 -1.7444026,0.656507 -2.3771728,1.234823 -0.4123325,0.376848 -0.7738772,0.68518 -0.8034327,0.68518 -0.029555,0 -0.2727094,-0.369643 -0.5403423,-0.821429 l 0,0 z"
       id="path5102" />
    <path
       style="fill:#0000ff;stroke:#000000"
       d="M 2.3231519,39.417377 C 2.0530283,38.96782 1.5779466,38.260795 1.2674149,37.846212 0.95688316,37.43163 0.74193713,37.053301 0.78975704,37.005481 0.87367089,36.921567 2.3078443,36.633584 5.9928571,35.960694 l 1.75,-0.319553 0,-7.41615 0,-7.416149 -0.3214285,0.06642 C 7.2446429,20.911795 5.9373273,20.982241 4.5162827,21.03181 L 1.9325654,21.121934 1.3506522,20.146681 C 1.0305999,19.610292 0.78599833,19.153702 0.8070931,19.132038 c 0.0210948,-0.02166 0.6099142,0.02317 1.3084876,0.09964 0.6985734,0.07647 2.2504907,0.183532 3.448705,0.237925 l 2.1785714,0.09889 0,-6.305676 0,-6.3056766 -1.5357142,0.00387 C 5.3625,6.9631417 4.06523,7.0235051 3.3243207,7.0951534 2.4730899,7.1774701 1.8825971,7.1747861 1.720178,7.087862 1.4192461,6.9268081 0.25324691,5.2562764 0.36427253,5.1452509 c 0.0415724,-0.041573 0.60983223,0.0029 1.26279957,0.098827 0.697754,0.1025069 3.5671943,0.204374 6.9599996,0.2470848 l 5.7727853,0.072671 1.230997,-1.303346 c 0.677049,-0.7168402 1.301123,-1.3033459 1.386832,-1.3033459 0.239354,0 2.228958,2.1485437 2.547398,2.750898 l 0.282227,0.533854 -0.293994,0.2939943 c -0.280691,0.2806916 -0.501924,0.297897 -4.88937,0.3802474 l -4.595376,0.086253 0,6.2630906 0,6.263091 0.464286,-5.71e-4 c 0.673473,-7.15e-4 1.195113,-0.381468 2.321429,-1.694175 l 1,-1.165489 0.973163,1.024405 c 0.960562,1.011141 1.678192,1.95594 1.855337,2.442651 0.06195,0.170229 -0.01882,0.321595 -0.253746,0.475528 -0.27501,0.180192 -0.953801,0.242435 -3.360047,0.308098 l -3.015416,0.08229 0.04321,6.8947 c 0.02377,3.792085 0.07985,6.931277 0.124626,6.975981 0.04478,0.0447 1.780492,-0.361751 3.857143,-0.903234 4.555353,-1.187802 4.324348,-1.143563 4.386813,-0.840106 0.06135,0.298036 -0.573164,0.632769 -3.457914,1.824197 -2.770863,1.144393 -5.3790219,2.143317 -8.0670327,3.08967 -2.3595477,0.830713 -2.8515849,1.077976 -3.505723,1.761726 -0.2307714,0.241219 -0.4557714,0.436756 -0.5,0.434527 -0.044229,-0.0022 -0.3014259,-0.371871 -0.5715494,-0.821428 l 0,3.7e-5 z"
       id="path5614" />
    <path
       style="fill:#0000ff;stroke:#000000;stroke-width:0.14285714999999999"
       d="m 38.892949,47.32161 c -0.881606,-0.892695 -1.872068,-1.453563 -3.522272,-1.994559 -1.340064,-0.439321 -1.774804,-0.702474 -1.545474,-0.935494 0.110404,-0.11218 0.69463,-0.114992 2.071428,-0.01 3.942489,0.300745 5.024185,0.16102 5.917655,-0.764402 1.059674,-1.097567 1.309725,-2.598407 1.84967,-11.101963 0.1966,-3.096233 0.38818,-5.934871 0.425733,-6.308085 l 0.06828,-0.678572 -1.902366,0 -1.902367,0 -0.537593,1.535714 c -1.636735,4.675576 -3.336531,8.337848 -5.07567,10.93572 -2.109017,3.150383 -4.942187,5.6081 -9.217076,7.995622 -2.0998,1.172728 -3.504325,1.818651 -3.954579,1.818651 -0.353481,0 -0.396887,-0.05138 -0.396887,-0.469761 0,-0.456856 0.05363,-0.498669 1.951957,-1.521904 5.22103,-2.814238 8.191918,-5.649938 11.009305,-10.508335 1.171616,-2.020373 2.630688,-5.687267 3.396395,-8.535714 l 0.33602,-1.25 -2.329507,0 -2.329508,0 -0.153477,0.392857 c -0.08441,0.216072 -0.38962,1.035714 -0.678237,1.821429 -1.265727,3.445734 -2.920636,6.085745 -5.338349,8.516055 -1.331487,1.338425 -2.063051,1.9289 -3.786729,3.056425 -2.923006,1.912051 -4.06009,2.518517 -4.390506,2.341684 C 18.716457,41.580844 18.6,41.370985 18.6,41.190665 c 0,-0.263314 0.456969,-0.640373 2.321429,-1.915471 2.685564,-1.83665 3.534493,-2.533919 4.790614,-3.934774 2.147415,-2.394849 4.30964,-6.559659 4.821182,-9.286412 l 0.09857,-0.525437 -1.837327,0.0037 -1.837327,0.0037 -0.5,0.737663 c -1.793644,2.646206 -5.997895,7.213593 -6.472444,7.031491 -0.133013,-0.05104 -0.241842,-0.170814 -0.241842,-0.26616 0,-0.09535 0.530357,-0.856532 1.178572,-1.691528 1.621588,-2.088844 2.786839,-3.999673 4.332454,-7.104547 C 26.485575,21.768602 27.6,19.198537 27.6,18.832288 c 0,-0.101368 -0.317002,-0.16086 -0.857143,-0.16086 l -0.857143,0 -0.0016,0.75 -0.0016,0.75 -0.891273,0.379387 c -0.4902,0.208663 -1.017947,0.40152 -1.172771,0.428572 -0.277914,0.04856 -0.281552,-0.08203 -0.285714,-10.255818 l -0.0042,-10.30500174 0.5,0.39954215 c 0.275,0.21974819 0.72154,0.63021329 0.99231,0.91214469 l 0.49231,0.5126026 6.972754,0 6.972755,0 0.667999,-0.9285714 c 0.367398,-0.5107143 0.710654,-0.92857144 0.762787,-0.92857144 0.186115,0 1.938023,1.18788864 2.6748,1.81366114 0.4125,0.3503514 0.75,0.728618 0.75,0.8405926 0,0.1119744 -0.391627,0.4766464 -0.870283,0.8103824 L 42.573721,4.4571424 42.66179,12.1 c 0.04844,4.203571 0.123321,7.776744 0.166409,7.940384 0.06942,0.263664 -0.04073,0.332817 -0.967788,0.607596 -0.575368,0.170537 -1.126482,0.309864 -1.224697,0.309615 -0.127938,-3.24e-4 -0.178571,-0.324504 -0.178571,-1.14331 l 0,-1.142857 -5.678572,0.0057 -5.678571,0.0057 1.110071,1.030047 c 0.610539,0.566526 1.108754,1.077336 1.107143,1.135133 -0.0016,0.0578 -0.290698,0.177547 -0.642416,0.266111 -0.351718,0.08856 -0.804376,0.325913 -1.005906,0.527443 -0.368496,0.368487 -1.640321,2.206513 -1.640321,2.370563 0,0.04836 3.317143,0.08793 7.371429,0.08793 l 7.371429,0 0.45,-0.467102 c 0.2475,-0.256906 0.660487,-0.706906 0.91775,-1 C 44.396441,22.339804 44.7009,22.1 44.815754,22.1 c 0.222346,0 3.212817,2.808102 3.212817,3.016888 0,0.06794 -0.35357,0.323069 -0.78571,0.566953 -0.43214,0.243886 -0.825764,0.508237 -0.874718,0.587447 -0.04896,0.07921 -0.271446,2.853433 -0.494423,6.164937 -0.709423,10.535873 -0.848869,11.27156 -2.474537,13.055079 -0.743309,0.815481 -2.048132,1.803943 -3.043492,2.30558 C 40.024893,47.963597 39.733411,48.1 39.707954,48.1 c -0.02546,0 -0.39221,-0.350276 -0.815005,-0.77839 z m 1.564194,-33.293039 0,-3.071429 -7.285714,0 -7.285715,0 0,3.071429 0,3.071429 7.285715,0 7.285714,0 0,-3.071429 z m 0,-7.5 0,-2.8571429 -7.285714,0 -7.285715,0 0,2.8571429 0,2.8571429 7.285715,0 7.285714,0 0,-2.8571429 z"
       id="path5616" />
    <path
       style="fill:#0000ff;stroke:#000000;stroke-width:1;stroke-miterlimit:4;stroke-dasharray:none"
       d="m 39.022601,47.302882 c -0.811327,-0.833457 -1.555877,-1.27148 -3.41815,-2.010918 -1.801791,-0.715424 -2.015504,-0.976072 -0.683337,-0.833407 0.508803,0.05449 1.946485,0.108314 3.194849,0.119613 4.723353,0.04275 4.869793,-0.278193 5.693531,-12.47817 0.193637,-2.867858 0.387199,-5.553556 0.430139,-5.968219 l 0.07807,-0.753933 -2.031072,0.03965 -2.03107,0.03965 -0.833458,2.285715 c -1.510556,4.142624 -2.570603,6.452298 -4.268157,9.299638 -2.310536,3.875509 -5.704104,6.78899 -11.196806,9.612797 -1.945666,1.00027 -2.64413,1.207638 -2.64067,0.783993 0.0035,-0.425498 0.116486,-0.515998 1.926384,-1.54266 4.893952,-2.776087 7.434094,-5.04412 9.979323,-8.910304 1.91367,-2.906851 3.23622,-6.064817 4.755044,-11.354027 0.06798,-0.236716 -0.08945,-0.25084 -2.388518,-0.214286 l -2.46129,0.03913 -0.947398,2.357143 c -1.530966,3.809069 -2.699267,5.659196 -5.216085,8.260217 -1.295218,1.338552 -1.963706,1.8834 -3.877883,3.16065 -2.516687,1.67928 -3.790765,2.371516 -4.127212,2.242409 -0.524591,-0.201304 -0.336048,-0.385594 2.426876,-2.372111 3.649194,-2.623739 5.235923,-4.306056 7.000033,-7.42173 1.172213,-2.070299 2.35711,-5.16889 2.35711,-6.164013 0,-0.07671 -0.812743,-0.133993 -1.900984,-0.133993 l -1.900984,0 -1.374085,1.821428 c -1.348681,1.787756 -4.227065,5.016538 -5.00389,5.613038 -0.82941,0.636877 -0.660743,0.139048 0.487693,-1.439443 1.377111,-1.8928 2.100159,-3.002425 3.080543,-4.727546 0.827228,-1.455624 3.056742,-6.179069 3.390804,-7.183751 0.284501,-0.855632 0.203541,-0.93558 -0.950539,-0.938682 l -0.8143,-0.0022 -0.04284,0.801406 -0.04284,0.801407 -0.899063,0.359054 c -0.494485,0.19748 -0.926936,0.331182 -0.961004,0.297114 -0.03407,-0.03407 -0.106207,-4.589032 -0.16031,-10.122143 l -0.09837,-10.0602013 0.702229,0.588634 c 0.386227,0.3237487 0.824693,0.7243626 0.974371,0.8902532 0.270037,0.2992868 0.326372,0.3015735 7.285714,0.2957497 l 7.013573,-0.00587 0.686855,-0.9292341 0.686855,-0.92923411 0.52743,0.31918972 C 42.162413,1.2781114 43.46194,2.2821746 43.864479,2.7158879 l 0.335907,0.361922 -0.890462,0.6896662 -0.890463,0.6896663 0.0923,6.3571426 c 0.05076,3.496429 0.13147,7.043177 0.179351,7.881665 l 0.08706,1.524521 -0.961273,0.296907 c -0.5287,0.163299 -1.018787,0.296907 -1.089082,0.296907 C 40.657514,20.814285 40.6,20.3 40.6,19.671428 l 0,-1.142857 -5.889506,0 -5.889505,0 1.103791,1.110303 c 0.607085,0.610667 1.103791,1.14692 1.103791,1.191674 0,0.04475 -0.25118,0.156624 -0.558179,0.248604 -0.620417,0.185882 -1.193601,0.770799 -2.046946,2.088848 l -0.557161,0.860571 0.759715,0.09301 c 0.417843,0.05116 3.781143,0.09991 7.474,0.108329 l 6.714286,0.01531 0.950885,-1.018672 c 0.902856,-0.967217 0.966215,-1.007934 1.254345,-0.80612 0.674168,0.472206 2.723341,2.427579 2.723341,2.598682 0,0.100808 -0.338658,0.408145 -0.752574,0.68297 l -0.752574,0.499681 -0.329643,4.270544 c -0.181305,2.348799 -0.42369,5.491973 -0.538635,6.98483 -0.207977,2.70114 -0.487841,4.809833 -0.771208,5.810818 -0.236664,0.836008 -1.223229,2.183967 -2.144534,2.93011 -0.793523,0.642654 -2.511546,1.759072 -2.706983,1.759072 -0.04797,0 -0.373817,-0.294417 -0.724105,-0.65426 z M 40.6,14.028571 l 0,-3.214286 -7.428571,0 -7.428572,0 0,3.214286 0,3.214286 7.428572,0 7.428571,0 0,-3.214286 z m 0,-7.5 0,-3 -7.428571,0 -7.428572,0 0,3 0,3 7.428572,0 7.428571,0 0,-3 z"
       id="path5618" />
  </g>
</svg>
