<?xml version="1.0" encoding="UTF-8" standalone="no"?>
<!-- Created with Inkscape (http://www.inkscape.org/) -->

<svg
   xmlns:dc="http://purl.org/dc/elements/1.1/"
   xmlns:cc="http://creativecommons.org/ns#"
   xmlns:rdf="http://www.w3.org/1999/02/22-rdf-syntax-ns#"
   xmlns:svg="http://www.w3.org/2000/svg"
   xmlns="http://www.w3.org/2000/svg"
   xmlns:sodipodi="http://sodipodi.sourceforge.net/DTD/sodipodi-0.dtd"
   xmlns:inkscape="http://www.inkscape.org/namespaces/inkscape"
   width="64px"
   height="64px"
   id="svg2985"
   version="1.1"
   inkscape:version="0.48.0 r9654"
   sodipodi:docname="qhdy.svg">
  <defs
     id="defs2987" />
  <sodipodi:namedview
     id="base"
     pagecolor="#ffffff"
     bordercolor="#666666"
     borderopacity="1.0"
     inkscape:pageopacity="0.0"
     inkscape:pageshadow="2"
     inkscape:zoom="5.5"
     inkscape:cx="32"
     inkscape:cy="32"
     inkscape:current-layer="layer1"
     showgrid="true"
     inkscape:document-units="px"
     inkscape:grid-bbox="true"
     inkscape:window-width="1280"
     inkscape:window-height="722"
     inkscape:window-x="0"
     inkscape:window-y="24"
     inkscape:window-maximized="1" />
  <metadata
     id="metadata2990">
    <rdf:RDF>
      <cc:Work
         rdf:about="">
        <dc:format>image/svg+xml</dc:format>
        <dc:type
           rdf:resource="http://purl.org/dc/dcmitype/StillImage" />
        <dc:title />
      </cc:Work>
    </rdf:RDF>
  </metadata>
  <g
     id="layer1"
     inkscape:label="Layer 1"
     inkscape:groupmode="layer">
    <g
       style="font-size:64px;font-style:normal;font-variant:normal;font-weight:300;font-stretch:normal;text-align:start;line-height:125%;letter-spacing:0px;word-spacing:0px;writing-mode:lr-tb;text-anchor:start;fill:#0000ff;fill-opacity:1;stroke:none;font-family:AR PL UMing TW;-inkscape-font-specification:AR PL UMing TW Light"
       id="text2993">
      <path
         d="m 9.8011364,28.25 c -0.1666759,2.8e-5 -0.3541757,2.8e-5 -0.5625,0 -1.4166741,2.8e-5 -2.7916727,0.145861 -4.125,0.4375 -0.2916711,2.7e-5 -0.5000042,-0.145806 -0.625,-0.4375 -0.1666706,-0.749972 -0.6250035,-1.458304 -1.375,-2.125 -0.041669,-0.166637 -0.041669,-0.31247 0,-0.4375 0.1666638,-0.12497 0.3958302,-0.0833 0.6875,0.125 1.6666616,0.333363 3.4166598,0.50003 5.25,0.5 l 2.8124996,0 0,-14.875 -2.5624996,0 c -1.2916743,4.5e-5 -2.8125061,0.145878 -4.5625,0.4375 l -0.125,0 c -0.250004,4.4e-5 -0.4375038,-0.124956 -0.5625,-0.375 -0.3333367,-0.833288 -0.8333362,-1.5624539 -1.5,-2.1875 -2.2e-6,-0.2499531 0.083331,-0.4166196 0.25,-0.5 0.2083307,4.72e-5 0.3749972,0.062547 0.5,0.1875 1.6666621,0.33338 3.4166603,0.5000465 5.25,0.5 l 11.3749996,0 c 0.208314,4.65e-5 0.458314,-0.1457867 0.75,-0.4375 L 22.863636,6.5 c 0.333311,-0.2082836 0.624977,-0.2082836 0.875,0 1.916642,1.9167142 2.916641,3.0208798 3,3.3125 0.124974,0.291713 0.187474,0.500046 0.1875,0.625 -2.6e-5,0.583378 -0.416692,0.916711 -1.25,1 l -10.75,0 0,14.875 1.0625,0 c 0.291651,3e-5 0.562484,-0.166637 0.8125,-0.5 l 2.25,-2.5625 c 0.249981,-0.3333 0.541648,-0.3333 0.875,0 2.166645,2.166697 3.249978,3.520863 3.25,4.0625 -2.2e-5,0.541695 -0.458355,0.854195 -1.375,0.9375 l -6.875,0 0,16.75 9.375,-2.5625 0.25,-0.125 c 0.499976,-0.04165 0.749975,0.10418 0.75,0.4375 -2.5e-5,0.500013 -0.291691,0.833346 -0.875,1 -3.62502,1.541677 -8.395849,3.354176 -14.3125,5.4375 C 8.3219618,49.562506 7.1969629,50.166672 6.7386364,51 c -0.1250062,0.208338 -0.3541727,0.416671 -0.6875,0.625 -0.1666722,4e-6 -0.4583386,-0.416662 -0.875,-1.25 -0.3750044,-0.833327 -0.8541706,-1.499993 -1.4375,-2 -0.5416695,-0.541658 -0.8125026,-0.854158 -0.8125,-0.9375 0.1249973,-0.166658 1.1666629,-0.395824 3.125,-0.6875 1.9999923,-0.291657 3.9374904,-0.645823 5.8124996,-1.0625 l 0,-17.4375 -2.0624996,0 M 25.863636,53.375 c -0.500025,3e-6 -0.750024,-0.33333 -0.75,-1 -2.4e-5,-0.291663 0.187475,-0.541663 0.5625,-0.75 3.291638,-1.91666 5.729136,-3.624992 7.3125,-5.125 3.749964,-3.83332 6.083295,-8.083316 7,-12.75 l -4.1875,0 -2.8125,3.8125 c -1.333364,1.58335 -3.041696,3.375015 -5.125,5.375 -0.45836,0.375013 -0.83336,0.416679 -1.125,0.125 -0.291692,-0.291653 -0.229192,-0.666653 0.1875,-1.125 2.208305,-2.374984 4.229136,-5.333314 6.0625,-8.875 1.833299,-3.583307 2.937465,-6.124971 3.3125,-7.625 l -1.875,0 0,1.5 c -3.4e-5,0.291695 -0.125034,0.479195 -0.375,0.5625 l -2.4375,1 c -0.166697,0.04169 -0.312531,0.04169 -0.4375,0 -0.12503,-0.08331 -0.145864,-0.687472 -0.0625,-1.8125 0.12497,-1.12497 0.229136,-5.145799 0.3125,-12.0625 l 0,-5.5 c -0.0417,-1.8749512 -0.166697,-3.6874494 -0.375,-5.4375 -3e-5,-0.3332807 0.06247,-0.4999472 0.1875,-0.5 l 0.0625,0 c 0.166636,5.28e-5 0.416636,0.2083859 0.75,0.625 0.333302,0.3750518 1.020801,0.9583846 2.0625,1.75 l 16.5625,0 c 0.24995,5.04e-5 0.416616,-0.083283 0.5,-0.25 L 52.363636,3.5 c 0.291615,-0.2916139 0.604114,-0.3124472 0.9375,-0.0625 2.208279,1.5000511 3.479111,2.4792167 3.8125,2.9375 0.29161,0.291716 0.145777,0.625049 -0.4375,1 -1.000055,0.4583815 -1.541721,0.8333811 -1.625,1.125 -0.08339,0.2500473 -0.125054,0.5208803 -0.125,0.8125 l 0,11.5 c -5.4e-5,1.5417 0.124946,3.583365 0.375,6.125 0.04161,0.458362 -0.06255,0.687528 -0.3125,0.6875 -1.625053,0.583361 -2.583385,0.875028 -2.875,0.875 l -0.0625,0 c -0.08338,2.8e-5 -0.125051,-0.229139 -0.125,-0.6875 l 0,-2.375 -13.5625,0 c 1.166628,1.00003 2.041627,1.729195 2.625,2.1875 0.458293,0.583361 0.229126,0.875028 -0.6875,0.875 -0.250039,2.8e-5 -0.562539,0.08336 -0.9375,0.25 -0.375038,0.166694 -1.000038,0.979193 -1.875,2.4375 -0.20837,0.208358 -0.354203,0.416691 -0.4375,0.625 l 17.625,0 c 0.499946,-0.08331 0.812445,-0.208309 0.9375,-0.375 l 1.4375,-2.0625 c 0.333277,-0.249973 0.645776,-0.208307 0.9375,0.125 2.083274,1.708358 3.354106,2.895857 3.8125,3.5625 0.04161,0.166689 -0.04173,0.312523 -0.25,0.4375 l -1.8125,1 c -0.166725,0.166688 -0.250059,0.312521 -0.25,0.4375 l -0.625,9.6875 c -0.208391,3.916674 -0.479224,6.854171 -0.8125,8.8125 -0.33339,1.958334 -0.916723,3.291666 -1.75,4 -1.291721,1.499997 -2.833386,2.645829 -4.625,3.4375 -0.166717,0.08333 -0.312551,0.124995 -0.4375,0.125 -0.12505,-5e-6 -0.291717,-0.145838 -0.5,-0.4375 -0.166716,-0.291671 -0.604216,-0.750004 -1.3125,-1.375 -0.708381,-0.625003 -2.291713,-1.270835 -4.75,-1.9375 -0.958376,-0.375001 -1.208376,-0.75 -0.75,-1.125 0.124957,-0.08333 0.374956,-0.125 0.75,-0.125 2.29162,0.25 3.958285,0.375 5,0.375 1.083283,0 1.854116,-0.02083 2.3125,-0.0625 1.416614,-0.125 2.374946,-1.041666 2.875,-2.75 0.416612,-1.20833 0.749945,-4.020827 1,-8.4375 l 0.6875,-11.375 -4.375,0 c -2.583382,8.250014 -5.687546,14.312508 -9.3125,18.1875 -3.125039,3.250001 -7.520868,6.124998 -13.1875,8.625 -0.833361,0.333328 -1.312528,0.187495 -1.4375,-0.4375 -0.125027,-0.583337 0.124972,-1.020836 0.75,-1.3125 4.333301,-1.833334 7.916631,-4.229165 10.75,-7.1875 4.291623,-4.541658 7.333287,-10.499985 9.125,-17.875 l -5.5,0 c -1.666708,5.45835 -4.062539,9.729179 -7.1875,12.8125 -1.7917,1.791674 -4.916697,3.958339 -9.375,6.5 -0.375026,0.208336 -0.687525,0.312503 -0.9375,0.3125 m 26.0625,-37.1875 -17.5,0 0,7.3125 17.5,0 0,-7.3125 m 0,-8.6875 -17.5,0 0,6.75 17.5,0 0,-6.75"
         style=""
         id="path3029" />
    </g>
  </g>
</svg>
