<?xml version="1.0" encoding="UTF-8" standalone="no"?>
<!-- Created with Inkscape (http://www.inkscape.org/) -->

<svg
   xmlns:dc="http://purl.org/dc/elements/1.1/"
   xmlns:cc="http://creativecommons.org/ns#"
   xmlns:rdf="http://www.w3.org/1999/02/22-rdf-syntax-ns#"
   xmlns:svg="http://www.w3.org/2000/svg"
   xmlns="http://www.w3.org/2000/svg"
   xmlns:sodipodi="http://sodipodi.sourceforge.net/DTD/sodipodi-0.dtd"
   xmlns:inkscape="http://www.inkscape.org/namespaces/inkscape"
   width="48px"
   height="48px"
   id="svg2816"
   version="1.1"
   inkscape:version="0.47 r22583"
   sodipodi:docname="qhzm.svg">
  <defs
     id="defs2818">
    <inkscape:perspective
       sodipodi:type="inkscape:persp3d"
       inkscape:vp_x="0 : 24 : 1"
       inkscape:vp_y="0 : 1000 : 0"
       inkscape:vp_z="48 : 24 : 1"
       inkscape:persp3d-origin="24 : 16 : 1"
       id="perspective2824" />
  </defs>
  <sodipodi:namedview
     id="base"
     pagecolor="#ffffff"
     bordercolor="#666666"
     borderopacity="1.0"
     inkscape:pageopacity="0.0"
     inkscape:pageshadow="2"
     inkscape:zoom="7"
     inkscape:cx="-5"
     inkscape:cy="27.128571"
     inkscape:current-layer="layer1"
     showgrid="true"
     inkscape:grid-bbox="true"
     inkscape:document-units="px"
     inkscape:window-width="1280"
     inkscape:window-height="725"
     inkscape:window-x="0"
     inkscape:window-y="25"
     inkscape:window-maximized="1" />
  <metadata
     id="metadata2821">
    <rdf:RDF>
      <cc:Work
         rdf:about="">
        <dc:format>image/svg+xml</dc:format>
        <dc:type
           rdf:resource="http://purl.org/dc/dcmitype/StillImage" />
        <dc:title />
      </cc:Work>
    </rdf:RDF>
  </metadata>
  <g
     id="layer1"
     inkscape:label="Layer 1"
     inkscape:groupmode="layer">
    <text
       xml:space="preserve"
       style="font-size:40px;font-style:normal;font-weight:normal;fill:#000000;fill-opacity:1;stroke:none;font-family:Bitstream Vera Sans"
       x="4.8571429"
       y="43"
       id="text3598"><tspan
         sodipodi:role="line"
         id="tspan3600" /></text>
    <text
       xml:space="preserve"
       style="font-size:40px;font-style:normal;font-weight:normal;fill:#000000;fill-opacity:1;stroke:none;font-family:Bitstream Vera Sans"
       x="3.7142856"
       y="37.857143"
       id="text3633"><tspan
         sodipodi:role="line"
         id="tspan3635" /></text>
    <text
       xml:space="preserve"
       style="font-size:40px;font-style:normal;font-weight:normal;fill:#000000;fill-opacity:1;stroke:none;font-family:Bitstream Vera Sans"
       x="0.71428573"
       y="23"
       id="text3658"><tspan
         sodipodi:role="line"
         id="tspan3660" /></text>
    <text
       xml:space="preserve"
       style="font-size:40px;font-style:normal;font-weight:normal;fill:#000000;fill-opacity:1;stroke:none;font-family:Bitstream Vera Sans"
       x="-1.2857143"
       y="41.714287"
       id="text3683"><tspan
         sodipodi:role="line"
         id="tspan3685" /></text>
    <text
       xml:space="preserve"
       style="font-size:49.16061783px;font-style:normal;font-weight:normal;fill:#000000;fill-opacity:1;stroke:none;font-family:Bitstream Vera Sans"
       x="-1.2380309"
       y="40.727764"
       id="text3708"
       transform="scale(0.99638504,1.0036281)"><tspan
         sodipodi:role="line"
         id="tspan3710"
         x="-1.2380309"
         y="40.727764">鄭</tspan></text>
    <path
       style="fill:#0000ff"
       d="M 1.2714286,47.363093 C 0.95714286,46.880598 0.58906457,46.31503 0.45347683,46.106278 L 0.20695366,45.726725 1.5727476,45.342842 c 5.2410384,-1.473097 8.8359234,-4.739824 10.6321464,-9.661594 0.233023,-0.638496 0.423677,-1.223338 0.423677,-1.299646 0,-0.08747 -2.138156,-0.138744 -5.7857139,-0.138744 l -5.7857142,0 0,-1.428572 0,-1.428571 6.1303002,0 6.1302999,0 0.0844,-0.535715 c 0.184465,-1.170812 0.367,-3.154304 0.36811,-4 l 0.0012,-0.892857 -4.7857147,0 -4.7857143,0 2.714e-4,-4.392857 c 1.572e-4,-2.416071 0.042633,-6.176786 0.094402,-8.357143 l 0.09413,-3.9642854 3.1011921,0 3.1011923,0 0.08855,-0.5357143 c 0.0487,-0.2946429 0.08926,-0.6160714 0.09012,-0.7142857 0.0012,-0.1392265 -1.0213984,-0.1785715 -4.6412846,-0.1785715 l -4.6428571,0 0,-1.5 0,-1.5 3.7246543,0 3.7246543,0 L 8.6746543,4.4840807 C 8.3651219,4.0915247 7.032074,2.894401 6.6934726,2.70491 6.4854934,2.5885191 6.5596851,2.4146151 7.2774723,1.3360254 L 8.0997181,0.10046989 8.7570019,0.62364867 C 9.8528506,1.4959123 10.62183,2.262296 11.507984,3.3653454 c 0.67156,0.8359313 0.810594,1.0917779 0.679281,1.25 -0.140078,0.1687829 0.230963,0.1989407 2.447624,0.1989407 1.437001,0 2.572052,-0.040677 2.522337,-0.090394 -0.04972,-0.049716 0.08421,-0.2226247 0.297618,-0.3842406 1.071083,-0.8111443 2.477256,-2.1707861 3.17714,-3.072005 0.430266,-0.55403953 0.834043,-1.01126969 0.897283,-1.01606701 0.15608,-0.0118401 1.706582,1.04890851 2.318409,1.58610031 0.76394,0.6707477 0.62434,1.119463 -0.348277,1.119463 -0.302498,0 -0.578036,0.2111341 -1.211828,0.9285714 l -0.820307,0.9285714 3.937796,0 3.937797,0 0,1.5 0,1.5 -5.428571,0 -5.428572,0 0,0.7142858 0,0.7142857 3.857143,0 3.857143,0 0,7.9107144 c 0,4.350893 0.04018,8.111607 0.08929,8.357143 l 0.08929,0.446428 -4.671082,0 -4.671083,0 0.2881,0.36626 c 0.341941,0.434707 0.267424,0.714335 -0.263529,0.9889 -0.362908,0.187667 -0.396894,0.284439 -0.48733,1.387575 -0.05347,0.65221 -0.13612,1.523337 -0.183671,1.935837 l -0.08646,0.75 6.519669,0 6.519668,0 0,1.428571 0,1.428572 -5.714286,0 c -3.902762,0 -5.714285,0.04765 -5.714285,0.150292 0,0.08266 0.262973,0.677305 0.584385,1.321429 1.703073,3.41304 4.635275,6.112091 9.330115,8.588246 l 1.182995,0.623934 -1.109825,1.015193 c -0.610405,0.558356 -1.15433,1.015191 -1.208725,1.015191 -0.22158,0 -3.504272,-2.033275 -4.636088,-2.87156 -1.592223,-1.179285 -3.877384,-3.48925 -4.837903,-4.890411 -0.421561,-0.614954 -1.044861,-1.672722 -1.385111,-2.350594 -0.574392,-1.144349 -0.628366,-1.207386 -0.754675,-0.881395 -1.363291,3.518546 -2.666096,5.63555 -4.677961,7.60149 -1.3898146,1.358089 -2.467614,2.132552 -4.2282193,3.038225 -1.2456671,0.640782 -3.8389738,1.643975 -4.2361561,1.63871 -0.051843,-6.88e-4 -0.3514033,-0.396019 -0.665689,-0.878515 z m 22.0714284,-24.90595 0,-0.642857 -8.142857,0 -8.1428571,0 0,0.642857 0,0.642857 8.1428571,0 8.142857,0 0,-0.642857 z m 0,-6.928571 0,-3.428572 -2.428571,0 -2.428572,0 0,1.777284 c 0,1.196629 0.05427,1.810824 0.166112,1.879945 0.302588,0.18701 0.93362,-0.740681 1.334121,-1.961318 0.215814,-0.657751 0.43498,-1.243269 0.487034,-1.301152 0.05205,-0.05788 0.588503,0.392117 1.192108,1 L 22.762551,14.6 22.279979,15.79496 c -0.791699,1.960429 -1.911899,2.867118 -3.549956,2.873332 -0.867229,0.0033 -1.674632,-0.302864 -2.13171,-0.80831 -0.134499,-0.148732 -0.388674,-0.5895 -0.564834,-0.979487 -0.271066,-0.600089 -0.329236,-1.021936 -0.378486,-2.74478 L 15.596799,12.1 l -1.258096,0 -1.258097,0 -0.386443,1.178572 c -0.53991,1.646613 -1.394901,3.333734 -2.297464,4.533496 -0.4224701,0.561582 -0.7681276,1.048962 -0.7681276,1.083067 0,0.0341 3.0857146,0.06201 6.8571426,0.06201 l 6.857143,0 0,-3.428571 z M 7.81455,16.492858 C 8.5232261,15.61623 9.033476,14.758508 9.484965,13.684914 10.215175,11.948552 10.302914,12.1 8.5667697,12.1 l -1.5096268,0 0,2.5 c 0,1.45184 0.055885,2.5 0.1332928,2.5 0.073311,0 0.3541626,-0.273214 0.6241143,-0.607142 z m 7.786134,-8.0000004 0.04354,-0.6785715 -1.007827,0 -1.007828,0 0,0.7208129 0,0.7208129 0.964286,-0.042241 0.964286,-0.042241 0.04354,-0.6785714 0,0 z"
       id="path2866" />
    <path
       style="fill:#0000ff;stroke:#000000"
       d="m 32.628571,25.671429 0,-21.1428571 6.190404,0 6.190403,0 0.730846,1.0113067 0.730846,1.0113068 -0.630618,1.7776749 c -1.33014,3.7495837 -3.043368,7.4214177 -4.862411,10.4212457 -0.506494,0.835272 -0.920898,1.552542 -0.920898,1.593933 0,0.04139 0.703582,0.807133 1.563516,1.701647 2.639454,2.74559 4.52755,5.471452 5.54493,8.005267 1.173474,2.922575 1.199685,5.962776 0.07164,8.309755 -0.462037,0.961302 -1.695355,2.230058 -2.68893,2.766191 -0.869577,0.469224 -2.828979,1.047837 -4.002582,1.181964 l -0.868568,0.09927 -0.810004,-1.357351 c -0.445502,-0.746544 -0.810003,-1.385213 -0.810003,-1.419266 0,-0.03405 0.447311,-0.103485 0.994025,-0.154298 1.27073,-0.118102 3.002837,-0.666116 4.000128,-1.265583 1.843321,-1.108012 2.556787,-3.229287 1.928519,-5.733869 -0.310297,-1.236995 -1.608263,-3.778903 -2.744378,-5.374527 -0.955938,-1.342573 -3.814695,-4.359693 -5.31658,-5.611097 l -0.781144,-0.650866 1.01006,-1.47778 c 1.403747,-2.053767 2.486536,-3.938615 3.624422,-6.309153 0.931339,-1.940241 2.284948,-5.2108081 2.284948,-5.5208509 0,-0.098077 -1.273161,-0.1477744 -3.785714,-0.1477744 l -3.785715,0 0,19.7142853 0,19.714286 -1.428571,0 -1.428572,0 0,-21.142857 z"
       id="path2868" />
    <path
       style="fill:#0000ff;stroke:#000000;stroke-width:0.14285714999999999"
       d="M 1.1131942,47.011626 C 0.67034404,46.346063 0.33192369,45.786053 0.36114891,45.767159 0.39037416,45.748265 0.99285714,45.550938 1.7,45.328655 c 5.3599851,-1.684857 8.490689,-4.492516 10.421458,-9.346107 0.291373,-0.732458 0.494546,-1.423529 0.451496,-1.535715 -0.06601,-0.172028 -0.97395,-0.203975 -5.7970419,-0.203975 l -5.7187692,0 0,-1.428572 0,-1.428571 6.1401354,0 6.1401357,0 0.06773,-0.321429 C 13.58499,30.21084 13.771429,28.2178 13.771429,27.148715 l 0,-1.191572 -4.7949527,0 -4.7949523,0 0.085036,-7.178571 c 0.04677,-3.948214 0.1209833,-7.708929 0.1649193,-8.357143 l 0.079884,-1.1785714 3.0558827,0 3.055883,0 0.08599,-0.3426125 c 0.0473,-0.1884368 0.06459,-0.493794 0.03844,-0.6785714 L 10.7,7.8857147 6.0928571,7.8480214 1.4857143,7.8103281 l 0,-1.4956491 0,-1.495649 3.75,-0.038086 3.75,-0.038086 L 8.2714286,4.0208964 C 7.8785714,3.6238179 7.3363627,3.1307686 7.0665204,2.9252313 L 6.5758981,2.5515273 7.2808061,1.4440527 C 7.6685056,0.8349417 8.0632134,0.31108653 8.1579346,0.27993013 8.429406,0.19063573 11.679625,3.5138926 11.995232,4.2034579 l 0.276197,0.6034572 2.386162,0.00369 2.386163,0.00369 0.756695,-0.6680592 c 0.416181,-0.367441 1.444622,-1.375058 2.285424,-2.2391573 l 1.52873,-1.57109014 0.779126,0.5173104 c 1.868772,1.24079604 2.247314,1.86135984 1.239302,2.03166244 -0.453594,0.076634 -0.730102,0.2719706 -1.38277,0.9768424 l -0.815802,0.8810539 3.9542,0.037974 3.954198,0.037974 0,1.4977403 0,1.4977401 -5.428571,0 -5.428572,0 0,0.7142858 0,0.7142857 3.857143,0 3.857143,0 0,8.1311725 c 0,4.472146 0.03902,8.23286 0.08671,8.357143 0.07798,0.203213 -0.383217,0.22597 -4.579506,0.22597 l -4.666217,0 0.258076,0.438237 0.258077,0.438236 -0.46065,0.383193 c -0.453567,0.377299 -0.463569,0.4123 -0.65037,2.276049 l -0.18972,1.892857 6.543227,0 6.543227,0 0,1.428571 0,1.428572 -5.634426,0 c -3.330047,0 -5.668097,0.05448 -5.716752,0.133207 -0.129423,0.20941 0.549815,1.617903 1.43679,2.979375 1.564954,2.402148 4.412411,4.819709 7.950102,6.749829 0.766072,0.41796 1.392858,0.807151 1.392858,0.864873 0,0.177463 -1.916105,1.838504 -2.12417,1.841411 -0.518785,0.0072 -4.877048,-2.933948 -6.315633,-4.262138 -1.898137,-1.752477 -3.18405,-3.407713 -4.483225,-5.770843 -0.291574,-0.530357 -0.581258,-0.964286 -0.643744,-0.964286 -0.06248,0 -0.353043,0.5625 -0.645686,1.25 -1.179561,2.771124 -2.418829,4.65013 -4.294986,6.512159 C 8.5153993,45.31186 6.8056877,46.359223 3.7,47.597516 1.8311849,48.342648 2.0285716,48.387353 1.1131942,47.011626 z m 22.2296628,-24.554483 0,-0.642857 -8.142857,0 -8.1428571,0 0,0.642857 0,0.642857 8.1428571,0 8.142857,0 0,-0.642857 z m 0,-6.928571 0,-3.428572 -2.428571,0 -2.428572,0 0,1.777284 c 0,1.112424 0.0574,1.812756 0.153433,1.872109 0.286876,0.1773 0.825913,-0.534908 1.287336,-1.700907 0.253078,-0.639524 0.51533,-1.224591 0.582778,-1.300148 0.07436,-0.0833 0.517826,0.254106 1.126576,0.857143 1.135036,1.124382 1.129229,1.087557 0.403277,2.557551 -0.515574,1.043996 -1.429591,2.016807 -2.104058,2.239401 -0.732229,0.241657 -1.94102,0.188639 -2.55656,-0.112131 -0.644833,-0.315086 -1.406249,-1.395003 -1.516627,-2.151033 -0.0433,-0.296597 -0.120752,-1.329086 -0.17211,-2.294416 l -0.09338,-1.755148 -1.285871,0.04086 -1.285871,0.04086 -0.46651,1.291356 c -0.614398,1.700724 -1.22304,2.894987 -2.160751,4.23977 -0.4228429,0.606405 -0.7688056,1.136763 -0.7688056,1.178571 0,0.04181 3.0857146,0.07602 6.8571426,0.07602 l 6.857143,0 0,-3.428571 z M 7.6456673,16.707143 c 0.925945,-1.02105 2.211599,-3.363885 2.302863,-4.196485 0.036735,-0.335131 0.019495,-0.339721 -1.4271017,-0.379941 l -1.4642857,-0.04071 0,2.504998 c 0,1.377749 0.052258,2.504997 0.1161298,2.504997 0.063871,0 0.276449,-0.176785 0.4723946,-0.392857 z m 7.9829037,-8.1785711 0,-0.7142858 -1,0 -1,0 0,0.7142858 0,0.7142857 1,0 1,0 0,-0.7142857 z"
       id="path2870" />
    <path
       style="fill:#0000ff;stroke:#000000;stroke-width:1;opacity:1;stroke-opacity:1;stroke-miterlimit:4;stroke-dasharray:none"
       d="M 1.2485676,46.952572 C 0.86301581,46.372755 0.63602231,45.899323 0.71171474,45.832878 0.78384307,45.769562 1.3892857,45.538999 2.0571429,45.320516 6.395775,43.90118 9.3062554,41.613155 11.241991,38.1 c 0.655894,-1.190377 1.38658,-3.018261 1.38658,-3.468665 0,-0.307657 -0.07959,-0.36055 -0.662795,-0.440489 C 11.601238,34.140882 9.0298093,34.1 6.2514899,34.1 L 1.2,34.1 l 0,-1.285714 0,-1.285714 6.1254913,0 6.1254907,0 0.157177,-1.056783 c 0.08645,-0.58123 0.200488,-1.866944 0.253424,-2.857143 l 0.09625,-1.80036 -4.8285249,0 -4.8285251,0 0.096149,-7.25 C 4.4498093,14.576786 4.531869,10.880358 4.5792824,10.35 l 0.086206,-0.9642853 3.0442167,0 3.0442169,0 0.09801,-0.6535974 c 0.05902,-0.3935969 0.03939,-0.7122206 -0.04936,-0.800966 C 10.710986,7.8395574 8.9470449,7.7544196 6.141891,7.7061994 l -4.5133196,-0.077583 0,-1.3357364 0,-1.3357366 2.4780536,0 c 1.3629296,0 3.0790929,-0.042663 3.8136964,-0.094807 L 9.2559641,4.76753 8.0089426,3.6123367 6.761921,2.4571433 7.412541,1.4928576 C 7.770382,0.96250043 8.1478441,0.52857186 8.2513456,0.52857186 c 0.2959188,0 3.3070684,3.15957684 3.6479574,3.82777444 l 0.306504,0.600797 2.463889,0 2.463888,0 2.252936,-2.2296682 2.252936,-2.22966824 0.585098,0.38719997 c 0.66286,0.43865987 1.832589,1.48491617 1.832589,1.63914677 0,0.056128 -0.241072,0.1744037 -0.535714,0.2628354 -0.340896,0.1023139 -0.863906,0.4921089 -1.438179,1.0718639 l -0.902464,0.9110787 1.402464,0.092867 c 0.771356,0.051077 2.575679,0.093199 4.009607,0.093606 L 29.2,4.9571433 l 0,1.3571428 0,1.3571429 -5.428571,0 -5.428572,0 0,0.8571429 0,0.8571428 3.839214,0 3.839213,0 0.06696,8.1071433 c 0.03683,4.458928 0.0411,8.155357 0.0095,8.214285 -0.0316,0.05893 -2.11081,0.107143 -4.620459,0.107143 -2.50965,0 -4.562998,0.0383 -4.562998,0.0851 0,0.04681 0.111334,0.273575 0.247411,0.503934 0.244734,0.414301 0.243087,0.422281 -0.152161,0.737441 -0.356173,0.284002 -0.421536,0.473653 -0.601777,1.746066 -0.111212,0.785101 -0.203453,1.700671 -0.204982,2.0346 l -0.0028,0.607143 6.5,0 6.5,0 0,1.285714 0,1.285714 -4.549874,0 c -2.502432,0 -5.041717,0.04158 -5.642857,0.09239 -0.98637,0.08338 -1.092983,0.1217 -1.092983,0.392874 0,0.469156 1.449991,2.977243 2.376843,4.111284 1.495771,1.83014 4.186244,3.925075 7.286801,5.673863 l 1.112641,0.627555 -0.566714,0.494962 c -0.311693,0.272229 -0.774756,0.655712 -1.029028,0.852182 l -0.462315,0.35722 -0.588971,-0.306989 c -0.323934,-0.168844 -1.176607,-0.699011 -1.894829,-1.178148 -4.009085,-2.674529 -5.7386,-4.428556 -7.898111,-8.010052 -0.509289,-0.844643 -0.976419,-1.535714 -1.038069,-1.535714 -0.09842,0 -1.441105,2.613081 -1.441105,2.804633 0,0.170491 -1.248567,2.186763 -1.827116,2.950553 -2.1239401,2.80399 -4.3114046,4.406535 -8.22783,6.027745 -0.6680276,0.27653 -1.3462937,0.502783 -1.5072579,0.502783 -0.2039035,0 -0.4952523,-0.304667 -0.9606575,-1.004571 z m 22.2371464,-24.495429 0,-0.785714 -8.285714,0 -8.2857143,0 0,0.785714 0,0.785715 8.2857143,0 8.285714,0 0,-0.785715 z m 0,-6.928571 0,-3.571429 -2.585774,0 -2.585776,0 0.05006,1.850126 c 0.02879,1.064124 0.115525,1.915539 0.204157,2.004097 0.28471,0.284477 0.85959,-0.373948 1.427543,-1.635007 0.30201,-0.670569 0.594198,-1.219216 0.649307,-1.219216 0.05511,0 0.459618,0.339883 0.898911,0.755295 0.924476,0.874221 0.986007,1.175017 0.452856,2.21374 -0.886791,1.727708 -1.811807,2.459537 -3.1088,2.459537 -1.399604,0 -2.118887,-0.462192 -2.670617,-1.716066 -0.214494,-0.487463 -0.306549,-1.12887 -0.384172,-2.676791 l -0.102084,-2.035715 -0.962091,0 c -1.815094,0 -1.745374,-0.0519 -2.490751,1.854045 -0.391361,1.000717 -1.083372,2.365832 -1.711941,3.37711 l -1.0550467,1.697417 1.0228227,0.08141 c 0.562553,0.04477 3.706751,0.09299 6.987109,0.107143 l 5.964285,0.02574 0,-3.571428 z M 7.8545069,16.613749 C 9.0753203,15.153265 10.313602,12.585031 9.9650306,12.23646 9.8850166,12.156446 9.1658659,12.051155 8.3669181,12.002481 l -1.4526324,-0.0885 0.00157,2.128723 c 0.00163,2.202993 0.093774,3.200152 0.2957236,3.200152 0.06438,0 0.3536967,-0.283099 0.6429253,-0.629109 z m 7.9169221,-8.0851771 0,-0.8571429 -1.142858,0 -1.142857,0 0,0.8571429 0,0.8571428 1.142857,0 1.142858,0 0,-0.8571428 z"
       id="path2872" />
  </g>
</svg>
