<?xml version="1.0" encoding="UTF-8" standalone="no"?>
<!-- Created with Inkscape (http://www.inkscape.org/) -->

<svg
   xmlns:dc="http://purl.org/dc/elements/1.1/"
   xmlns:cc="http://creativecommons.org/ns#"
   xmlns:rdf="http://www.w3.org/1999/02/22-rdf-syntax-ns#"
   xmlns:svg="http://www.w3.org/2000/svg"
   xmlns="http://www.w3.org/2000/svg"
   xmlns:sodipodi="http://sodipodi.sourceforge.net/DTD/sodipodi-0.dtd"
   xmlns:inkscape="http://www.inkscape.org/namespaces/inkscape"
   width="64px"
   height="64px"
   id="svg3016"
   version="1.1"
   inkscape:version="0.48.0 r9654"
   sodipodi:docname="新文件 4">
  <defs
     id="defs3018" />
  <sodipodi:namedview
     id="base"
     pagecolor="#ffffff"
     bordercolor="#666666"
     borderopacity="1.0"
     inkscape:pageopacity="0.0"
     inkscape:pageshadow="2"
     inkscape:zoom="3.8890873"
     inkscape:cx="68.332142"
     inkscape:cy="16.598958"
     inkscape:current-layer="layer1"
     showgrid="true"
     inkscape:document-units="px"
     inkscape:grid-bbox="true"
     inkscape:window-width="1280"
     inkscape:window-height="722"
     inkscape:window-x="0"
     inkscape:window-y="24"
     inkscape:window-maximized="1" />
  <metadata
     id="metadata3021">
    <rdf:RDF>
      <cc:Work
         rdf:about="">
        <dc:format>image/svg+xml</dc:format>
        <dc:type
           rdf:resource="http://purl.org/dc/dcmitype/StillImage" />
        <dc:title></dc:title>
      </cc:Work>
    </rdf:RDF>
  </metadata>
  <g
     id="layer1"
     inkscape:label="Layer 1"
     inkscape:groupmode="layer">
    <g
       style="font-size:64px;font-style:normal;font-variant:normal;font-weight:300;font-stretch:normal;text-align:start;line-height:125%;letter-spacing:0px;word-spacing:0px;writing-mode:lr-tb;text-anchor:start;fill:#0000ff;fill-opacity:1;stroke:none;font-family:AR PL UMing TW;-inkscape-font-specification:AR PL UMing TW Light"
       id="text3031">
      <path
         d="m 9.3636363,28.863636 -0.625,0 c -1.1250072,2.8e-5 -2.3958393,0.145861 -3.8125,0.4375 -0.2083376,0.04169 -0.3333375,2.7e-5 -0.375,-0.125 -0.5416703,-0.874972 -1.0208365,-1.645804 -1.4375,-2.3125 -0.2500025,-0.37497 -0.1041693,-0.49997 0.4375,-0.375 2.541661,0.291696 3.9583262,0.437529 4.25,0.4375 l 1.5625,0 0,-16.3125 -0.875,0 c -1.125007,4.6e-5 -2.395839,0.145879 -3.8125,0.4375 -0.2083374,0.04171 -0.3333373,4.5e-5 -0.375,-0.125 -0.54167,-0.79162 -1.0208362,-1.5207864 -1.4375,-2.1875 -0.2500022,-0.4166186 -0.104169,-0.5624518 0.4375,-0.4375 2.5416612,0.2083812 3.9583265,0.3333811 4.25,0.375 l 5.8124997,0 c 0.249987,4.77e-5 0.499987,-0.1457855 0.75,-0.4375 l 2.25,-2.5625 c 0.291651,-0.2916157 0.583317,-0.2916157 0.875,0 1.083316,1.083383 1.999981,2.083382 2.75,3 0.458314,0.5833805 0.404693,1.0172844 0.25,1.5 -0.02697,0.08417 -0.113185,0.139648 -0.1875,0.1875 -0.149658,0.09637 -0.327548,0.143404 -0.5,0.1875 -0.142722,0.03649 -0.290557,0.05206 -0.4375,0.0625 -2.244339,0.1595 -6.75,0 -6.75,0 l 0,16.3125 0.375,0 c 0.583321,2.9e-5 0.95832,-0.0208 1.125,-0.0625 l 2.125,-2.75 c 0.208318,-0.166634 0.395818,-0.166634 0.5625,0 1.16665,1.166698 2.124982,2.31253 2.875,3.4375 0.208314,0.333362 0.291648,0.625028 0.25,0.875 -0.08335,0.250028 -0.312519,0.395861 -0.6875,0.4375 l -6.625,0 0,16.375 c 2.374986,-0.791655 4.583317,-1.499987 6.625,-2.125 0.541648,-0.249986 0.874981,-0.187487 1,0.1875 0.166647,0.416679 -0.08335,0.770846 -0.75,1.0625 -3.791681,2.00001 -6.937512,3.562508 -9.4374997,4.6875 -0.7916753,0.33334 -1.8750075,1.14584 -3.25,2.4375 -0.1666726,0.166671 -0.3333391,0.270838 -0.5,0.3125 -0.2083388,5e-6 -0.3958386,-0.145829 -0.5625,-0.4375 -0.5833378,-1.083327 -1.3333371,-1.958326 -2.25,-2.625 -0.541669,-0.416659 -0.7916687,-0.687492 -0.75,-0.8125 0.041664,-0.166658 0.270831,-0.270825 0.6875,-0.3125 1.9583286,-0.374991 4.0208265,-0.87499 6.1875,-1.5 l 0,-17.25"
         id="path3040"
         inkscape:connector-curvature="0"
         sodipodi:nodetypes="ccccccccccccccccccccaaaaccccccccccccccccccccccc" />
    </g>
    <g
       style="font-size:64px;font-style:normal;font-variant:normal;font-weight:300;font-stretch:normal;text-align:start;line-height:125%;letter-spacing:0px;word-spacing:0px;writing-mode:lr-tb;text-anchor:start;fill:#0000ff;fill-opacity:1;stroke:none;font-family:AR PL UMing TW;-inkscape-font-specification:AR PL UMing TW Light"
       id="text3035">
      <path
         d="m 24.982952,4.551136 c -0.250024,-0.2916145 -0.291691,-0.5832809 -0.125,-0.875 0.249976,-0.3332803 0.624975,-0.2916137 1.125,0.125 1.874973,1.2500513 3.312471,2.4375501 4.3125,3.5625 0.708303,0.8333815 1.062469,1.4583809 1.0625,1.875 -0.08336,0.95838 -0.395864,1.687545 -0.9375,2.1875 -0.625029,0.500044 -1.062529,0.750044 -1.3125,0.75 -0.291695,-0.08329 -0.520861,-0.520789 -0.6875,-1.3125 -0.375027,-1.2082866 -0.812527,-2.3124522 -1.3125,-3.3125 -0.625026,-1.2082833 -1.333358,-2.2082823 -2.125,-3 m -1.5625,17.0625 c -0.04169,-1.083297 -0.08336,-2.020797 -0.125,-2.8125 -0.04169,-0.291629 0.02081,-0.499962 0.1875,-0.625 0.249977,-0.08329 0.52081,0.06254 0.8125,0.4375 0.541642,0.541704 1.187475,1.062537 1.9375,1.5625 l 2.9375,0 0,-4.8125 -2.25,0 c -1.125025,4.1e-5 -2.395857,0.145874 -3.8125,0.4375 -0.208356,0.04171 -0.333355,4.1e-5 -0.375,-0.125 -0.541688,-0.874958 -1.020854,-1.645791 -1.4375,-2.3125 -0.25002,-0.374957 -0.104187,-0.499956 0.4375,-0.375 2.541643,0.29171 3.958308,0.437543 4.25,0.4375 l 8.125,0 c -3.3e-5,-0.124957 0.06247,-0.249957 0.1875,-0.375 0.874965,-1.749955 1.520798,-3.3332867 1.9375,-4.75 0.458297,-1.6666169 0.812464,-3.3749485 1.0625,-5.125 0.0833,-0.2916132 0.145797,-0.4582797 0.1875,-0.5 0.124963,5.37e-5 0.312463,0.020887 0.562498,0.0625 1.0833,0.4583865 2.3333,1.0833859 3.75,1.875 0.12496,0.041718 0.16663,0.1250516 0.125,0.25 -4e-5,0.083385 -0.0625,0.1875513 -0.1875,0.3125 -1.45837,1.0417168 -2.33337,1.8333827 -2.625,2.375 -0.0834,0.1667153 -0.27087,0.5833816 -0.5625,1.25 -0.625035,1.20838 -1.520868,2.750045 -2.687498,4.625 l 2.812498,0 c 0.5833,4.3e-5 0.9583,-0.02079 1.125,-0.0625 l 2.125,-2.75 c 0.20829,-0.166621 0.39579,-0.166621 0.5625,0 1.16663,1.166711 2.12496,2.312543 2.875,3.4375 0.20829,0.333375 0.29162,0.625042 0.25,0.875 -0.0834,0.250041 -0.31254,0.395874 -0.6875,0.4375 l -8.249998,0 0,4.8125 1.812498,0 c 0.24996,3.6e-5 0.43746,-0.06246 0.5625,-0.1875 l 1.0625,-1.625 c 0.2083,-0.333295 0.4583,-0.374962 0.75,-0.125 1.16663,0.750037 2.31246,1.58337 3.4375,2.5 0.33329,0.291702 0.47912,0.520868 0.4375,0.6875 -0.0834,0.166701 -0.27088,0.333368 -0.5625,0.5 -1.00004,0.458367 -1.52087,0.833367 -1.5625,1.125 -0.12504,0.250033 -0.16671,0.562533 -0.125,0.9375 l 0,10 c -0.0417,1.541688 0.0833,3.583352 0.375,6.125 0.0416,0.458349 -0.0625,0.708349 -0.3125,0.75 -1.70837,0.583348 -2.62504,0.854181 -2.75,0.8125 -0.0834,-0.04165 -0.12504,-0.270818 -0.125,-0.6875 l 0,-0.625 -13.437498,0 0,0.75 c -0.04169,0.333348 -0.145859,0.520848 -0.3125,0.5625 -0.416692,0.125015 -1.020858,0.375014 -1.8125,0.75 -0.625023,0.250014 -0.916689,0.16668 -0.875,-0.25 0.08331,-1.083318 0.145811,-2.145817 0.1875,-3.1875 l 0,-17.375 m 16.249998,13 -13.437498,0 0,3.8125 13.437498,0 0,-3.8125 m -8.249998,-11.5 c -3.1e-5,1.958365 -0.50003,3.770863 -1.5,5.4375 -0.791695,1.33336 -2.020861,2.458359 -3.6875,3.375 l 0,0.75 13.437498,0 0,-3.5625 -2.749998,0 c -1.041702,2.7e-5 -1.708368,-0.208306 -2,-0.625 -0.333367,-0.458305 -0.500034,-1.333304 -0.5,-2.625 l 0,-3.75 -3,0 0,1 m 8.249998,4.0625 0,-5.0625 -2.999998,0 0,3.75 c -3.6e-5,0.541697 0.06246,0.895863 0.1875,1.0625 0.16663,0.166696 0.395797,0.250029 0.6875,0.25 l 2.124998,0 m -8.249998,-11.8125 0,4.8125 3,0 0,-4.8125 -3,0 m -5.1875,6.75 0,8.375 c 0.583307,-0.583307 1.124973,-1.249973 1.625,-2 0.833305,-1.416637 1.270805,-3.208302 1.3125,-5.375 l 0,-1 -2.9375,0 m -9.125,39.625 c -0.500016,0.124995 -0.812516,-0.06251 -0.9375,-0.5625 -0.08335,-0.458338 0.145818,-0.770837 0.6875,-0.9375 3.833313,-1.333336 6.70831,-2.895834 8.625,-4.6875 1.833307,-1.666664 3.083305,-3.958329 3.75,-6.875 0.0833,-0.416659 0.145805,-0.770825 0.1875,-1.0625 l -4.5,0 c -1.125023,9e-6 -2.395855,0.145842 -3.8125,0.4375 -0.208354,0.04167 -0.333353,8e-6 -0.375,-0.125 -0.541686,-0.874991 -1.020852,-1.645823 -1.4375,-2.3125 -0.250018,-0.374989 -0.104185,-0.499989 0.4375,-0.375 2.541645,0.291678 3.95831,0.437511 4.25,0.4375 l 5.8125,0 c 0.208304,-1.416655 0.291637,-2.749987 0.25,-4 -2.9e-5,-0.291652 0.06247,-0.499985 0.1875,-0.625 0.12497,-0.08332 0.333303,-0.104151 0.625,-0.0625 1.749968,0.458348 3.3333,1.020848 4.75,1.6875 0.291631,0.125014 0.416631,0.270847 0.375,0.4375 -0.0417,0.16668 -0.208368,0.270846 -0.5,0.3125 -1.083367,0.291679 -1.708366,0.520846 -1.875,0.6875 -0.125033,0.08335 -0.208366,0.208345 -0.25,0.375 -0.08337,0.375012 -0.145866,0.770844 -0.1875,1.1875 l 5.249998,0 c 0.5833,1.1e-5 0.9583,-0.02082 1.125,-0.0625 l 2.125,-2.75 c 0.20829,-0.166653 0.39579,-0.166653 0.5625,0 1.16663,1.166679 2.12496,2.312511 2.875,3.4375 0.20829,0.333343 0.29162,0.625009 0.25,0.875 -0.0834,0.250009 -0.31254,0.395842 -0.6875,0.4375 l -11.874998,0 c -0.166699,0.666675 -0.312532,1.270841 -0.4375,1.8125 l 0.125,0 c 3.666631,1.583339 6.562458,3.187504 8.687498,4.8125 1.49996,1.166668 2.31246,2.145833 2.4375,2.9375 0.20829,0.958332 0.0625,1.770831 -0.4375,2.4375 -0.50004,0.708329 -0.87504,1.083329 -1.125,1.125 -0.29171,0.04166 -0.64587,-0.333337 -1.0625,-1.125 -1.2917,-1.958335 -2.64587,-3.645833 -4.062498,-5.0625 -1.625035,-1.666663 -3.270866,-2.937495 -4.9375,-3.8125 -0.291698,0.916671 -0.625031,1.750004 -1,2.5 -1.000029,1.791668 -2.375028,3.3125 -4.125,4.5625 -2.083357,1.45833 -5.333354,2.770829 -9.75,3.9375 m 36.562498,-35.8125 c -0.0417,0.291697 0.0208,0.520863 0.1875,0.6875 3.24995,3.291693 5.52078,6.687523 6.8125,10.1875 0.70827,1.916684 0.91661,3.958349 0.625,6.125 -0.37506,2.208345 -1.14589,3.895843 -2.3125,5.0625 -1.12506,1.083341 -2.62505,1.95834 -4.5,2.625 -0.95838,0.375005 -1.45838,0.375005 -1.5,0 -0.0417,-0.41666 -0.31255,-0.937493 -0.8125,-1.5625 -0.54172,-0.666659 -1.33338,-1.333325 -2.375,-2 l 0,0.75 c -0.0417,4.79167 -0.0417,8.875 0,12.25 -0.0417,0.416663 -0.20838,0.687496 -0.5,0.8125 -1.54171,0.708328 -2.45838,1.062494 -2.75,1.0625 -0.16671,-0.04167 -0.22921,-0.458338 -0.1875,-1.25 0.16662,-4.166667 0.31246,-8.458329 0.4375,-12.875 l 0,-37.5 c -0.0417,-1.3332859 -0.18754,-2.9582843 -0.4375,-4.875 -0.0834,-0.4166153 -0.0625,-0.6457817 0.0625,-0.6875 0.16662,-0.083282 0.45829,0.083385 0.875,0.5 0.54162,0.5000506 1.20829,1.0625501 2,1.6875 l 6.375,0 c 0.33328,-0.041617 0.64578,-0.2082837 0.9375,-0.5 l 1,-1.4375 c 0.20828,-0.4166149 0.49994,-0.4791148 0.875,-0.1875 1.33328,0.7917175 2.45828,1.5833833 3.375,2.375 0.33327,0.3750488 0.29161,0.6458819 -0.125,0.8125 -0.83339,0.375048 -1.45839,1.0000474 -1.875,1.875 -2.70839,5.208375 -4.77089,10.562536 -6.1875,16.0625 m -1.5625,-0.5 c 1.58328,-5.583297 2.99995,-10.895791 4.25,-15.9375 -5e-5,-0.2082862 -0.0209,-0.3749527 -0.0625,-0.5 -0.0834,-0.1249525 -0.27089,-0.1666191 -0.5625,-0.125 l -5.9375,0 0,36.4375 0.375,0.125 c 1.95828,0.50001 3.52078,0.62501 4.6875,0.375 1.04161,0.08334 1.89578,-0.437489 2.5625,-1.5625 0.66661,-1.041653 1.02078,-2.458319 1.0625,-4.25 0.0416,-1.791648 -0.37506,-3.583313 -1.25,-5.375 -1.45839,-2.958309 -3.12505,-5.583306 -5,-7.875 -0.33338,-0.24997 -0.37505,-0.68747 -0.125,-1.3125"
         id="path3043"
         inkscape:connector-curvature="0"
         sodipodi:nodetypes="cccccccccccccccccccccccccccccccccccccccccccccccccccccccccccccccccccccccccccccccccccccccccccccccccccccccccccscccccccccccccccccccccccccccccccccccccccccccccccccccccccccccccccccccccccccccc" />
    </g>
  </g>
</svg>
