<?xml version="1.0" encoding="UTF-8" standalone="no"?>
<!-- Created with Inkscape (http://www.inkscape.org/) -->

<svg
   xmlns:dc="http://purl.org/dc/elements/1.1/"
   xmlns:cc="http://creativecommons.org/ns#"
   xmlns:rdf="http://www.w3.org/1999/02/22-rdf-syntax-ns#"
   xmlns:svg="http://www.w3.org/2000/svg"
   xmlns="http://www.w3.org/2000/svg"
   xmlns:sodipodi="http://sodipodi.sourceforge.net/DTD/sodipodi-0.dtd"
   xmlns:inkscape="http://www.inkscape.org/namespaces/inkscape"
   width="64px"
   height="64px"
   id="svg3083"
   version="1.1"
   inkscape:version="0.48.0 r9654"
   sodipodi:docname="新文件 7">
  <defs
     id="defs3085" />
  <sodipodi:namedview
     id="base"
     pagecolor="#ffffff"
     bordercolor="#666666"
     borderopacity="1.0"
     inkscape:pageopacity="0.0"
     inkscape:pageshadow="2"
     inkscape:zoom="14.728255"
     inkscape:cx="33.050726"
     inkscape:cy="60.858042"
     inkscape:current-layer="text3095"
     showgrid="true"
     inkscape:document-units="px"
     inkscape:grid-bbox="true"
     inkscape:window-width="1280"
     inkscape:window-height="722"
     inkscape:window-x="0"
     inkscape:window-y="24"
     inkscape:window-maximized="1" />
  <metadata
     id="metadata3088">
    <rdf:RDF>
      <cc:Work
         rdf:about="">
        <dc:format>image/svg+xml</dc:format>
        <dc:type
           rdf:resource="http://purl.org/dc/dcmitype/StillImage" />
        <dc:title></dc:title>
      </cc:Work>
    </rdf:RDF>
  </metadata>
  <g
     id="layer1"
     inkscape:label="Layer 1"
     inkscape:groupmode="layer">
    <g
       style="font-size:64px;font-style:normal;font-variant:normal;font-weight:300;font-stretch:normal;text-align:start;line-height:125%;letter-spacing:0px;word-spacing:0px;writing-mode:lr-tb;text-anchor:start;fill:#ff0000;fill-opacity:1;stroke:none;font-family:AR PL UMing TW;-inkscape-font-specification:AR PL UMing TW Light"
       id="text3091">
      <path
         d="m 8.8181818,30.863636 -0.625,0 c -1.1250073,2.8e-5 -2.3958394,0.145861 -3.8125,0.4375 -0.2083377,0.04169 -0.3333376,2.7e-5 -0.375,-0.125 -0.5416704,-0.874972 -1.0208365,-1.645804 -1.4375,-2.3125 -0.2500025,-0.37497 -0.1041694,-0.49997 0.4375,-0.375 2.5416609,0.291696 3.9583261,0.437529 4.25,0.4375 l 1.5625,0 0,-16.3125 -0.875,0 c -1.125007,4.6e-5 -2.3958391,0.145879 -3.8125,0.4375 -0.2083375,0.04171 -0.3333374,4.5e-5 -0.375,-0.125 -0.5416701,-0.79162 -1.0208363,-1.520786 -1.4375,-2.1875 -0.2500023,-0.416619 -0.1041691,-0.562452 0.4375,-0.4375 2.5416611,0.208381 3.9583264,0.333381 4.25,0.375 l 5.8125002,0 c 0.249987,4.8e-5 0.499986,-0.145786 0.75,-0.4375 l 2.25,-2.5625 c 0.29165,-0.2916157 0.583317,-0.2916157 0.875,0 1.083315,1.083383 1.999981,2.083382 2.75,3 0.458313,0.583381 0.47192,1.044263 0.25,1.5 -0.114284,0.234695 -0.439762,0.292731 -0.6875,0.375 -0.139807,0.04643 -0.312519,0.02088 -0.4375,0.0625 l -6.75,0 0,16.3125 0.375,0 c 0.58332,2.9e-5 0.95832,-0.0208 1.125,-0.0625 l 2.125,-2.75 c 0.208317,-0.166634 0.395817,-0.166634 0.5625,0 1.166649,1.166698 2.124981,2.31253 2.875,3.4375 0.208314,0.333362 0.291647,0.625028 0.25,0.875 -0.08335,0.250028 -0.312519,0.395861 -0.6875,0.4375 l -6.625,0 0,16.375 c 2.374985,-0.791655 4.583317,-1.499987 6.625,-2.125 0.541647,-0.249986 0.87498,-0.187487 1,0.1875 0.166647,0.416679 -0.08335,0.770846 -0.75,1.0625 -3.791682,2.00001 -6.937512,3.562508 -9.4375002,4.6875 -0.7916754,0.33334 -1.8750076,1.14584 -3.25,2.4375 -0.1666727,0.166671 -0.3333392,0.270838 -0.5,0.3125 -0.2083389,5e-6 -0.3958387,-0.145829 -0.5625,-0.4375 -0.5833379,-1.083327 -1.3333372,-1.958326 -2.25,-2.625 -0.541669,-0.416659 -0.7916688,-0.687492 -0.75,-0.8125 0.041664,-0.166658 0.2708309,-0.270825 0.6875,-0.3125 1.9583285,-0.374991 4.0208265,-0.87499 6.1875,-1.5 l 0,-17.25"
         id="path3110"
         inkscape:connector-curvature="0"
         sodipodi:nodetypes="ccccccccccccccccccccaacccccccccccccccccccccccc"
         style="fill:#00ff00" />
    </g>
    <g
       style="font-size:64px;font-style:normal;font-variant:normal;font-weight:300;font-stretch:normal;text-align:start;line-height:125%;letter-spacing:0px;word-spacing:0px;writing-mode:lr-tb;text-anchor:start;fill:#000000;fill-opacity:1;stroke:none;font-family:AR PL UMing TW;-inkscape-font-specification:AR PL UMing TW Light"
       id="text3095"
       transform="translate(-27.818182,-17.090909)">
      <path
         style="font-size:64px;font-style:normal;font-variant:normal;font-weight:300;font-stretch:normal;text-align:start;line-height:125%;letter-spacing:0px;word-spacing:0px;writing-mode:lr-tb;text-anchor:start;fill:#ff00ff;fill-opacity:1;stroke:none;font-family:AR PL UMing TW;-inkscape-font-specification:AR PL UMing TW Light"
         d="m 51.095942,20.175674 c 0.29165,-0.708281 0.70832,-0.749948 1.25,-0.125 1.24998,1.333385 2.124978,2.312549 2.624998,2.937499 0.33332,0.500049 0.47915,0.833382 0.4375,1 -0.0833,0.125049 -0.39585,0.166715 -0.9375,0.125 -0.41668,-0.04162 -0.770848,4.9e-5 -1.062498,0.125 -0.33335,0.125048 -1.00001,0.750048 -2,1.875 -1.54168,1.666712 -3.27084,3.333377 -5.1875,5 -1.50001,1.333374 -3.33334,2.687539 -5.5,4.0625 -0.54167,0.291705 -0.89584,0.291705 -1.0625,0 -0.25,-0.416629 -0.125,-0.770795 0.375,-1.0625 2.45833,-1.916626 4.83333,-4.45829 7.125,-7.625 2.33332,-3.083284 3.64582,-5.187449 3.9375,-6.312499 m 2.125,16.6875 c -0.33335,0.416702 -0.64585,0.937535 -0.9375,1.5625 -1.12501,1.833366 -2.37501,3.708364 -3.75,5.625 1.12499,0.416695 2.12499,0.875028 3,1.375 0.54165,0.291694 0.54165,0.562527 0,0.8125 -1.25001,0.625026 -1.93751,1.083359 -2.0625,1.375 -0.16668,0.375025 -0.25001,1.833357 -0.25,4.375 l 0,11.187499 c -1e-5,5.208338 0.0833,9.583333 0.25,13.125 -1e-5,0.374996 -0.14585,0.583329 -0.4375,0.625 l -2.75,1.125 c -0.37501,0.08333 -0.54167,-0.208339 -0.5,-0.875 0.24999,-5.541666 0.39582,-10.208328 0.4375,-14 l 0,-11.187499 c -0.0833,-1.791644 -0.14584,-3.333309 -0.1875,-4.625 -1.50001,1.875023 -3.27084,3.833355 -5.3125,5.875 -0.45834,0.416686 -0.83334,0.479186 -1.125,0.1875 -0.29167,-0.291647 -0.22917,-0.645813 0.1875,-1.0625 2.79166,-3.08331 5.37499,-6.895806 7.75,-11.4375 2.41665,-4.499964 3.70832,-7.520795 3.875,-9.062501 0.12499,-0.666625 0.52082,-0.791625 1.1875,-0.375 1.458318,1.083373 2.499978,1.895873 3.124998,2.4375 0.41665,0.416705 0.60415,0.708371 0.5625,0.875 -0.0417,0.166704 -0.31252,0.270871 -0.8125,0.3125 -0.45835,0.0417 -0.81252,0.145871 -1.0625,0.312501 -0.20835,0.08337 -0.437518,0.312537 -0.687498,0.6875"
         id="path3107-7"
         inkscape:connector-curvature="0"
         sodipodi:nodetypes="cccccccccccccccccccsscccccccccccccccccc" />
      <path
         style="font-size:64px;font-style:normal;font-variant:normal;font-weight:300;font-stretch:normal;text-align:start;line-height:125%;letter-spacing:0px;word-spacing:0px;writing-mode:lr-tb;text-anchor:start;fill:#ff0000;fill-opacity:1;stroke:none;font-family:AR PL UMing TW;-inkscape-font-specification:AR PL UMing TW Light"
         d="m 77.1357,23.53931 c -0.20838,-0.37495 -0.0417,-0.49995 0.5,-0.375 2.54162,0.208383 3.95829,0.333383 4.25,0.375 l 2.3125,0 c 0.24995,4.9e-5 0.49995,-0.145784 0.75,-0.4375 l 2.25,-2.5625 c 0.29161,-0.291614 0.58328,-0.291614 0.875,0 1.08328,1.083385 1.99994,2.083384 2.75,3 0.45828,0.583382 0.54161,1.083382 0.25,1.5 -0.20839,0.250048 -0.58339,0.395881 -1.125,0.4375 l -7.125,0 c -1.12505,4.8e-5 -2.39588,0.145881 -3.8125,0.4375 -0.20838,0.04171 -0.33338,4.7e-5 -0.375,-0.125 -0.37504,-0.583286 -0.70838,-1.083285 -1,-1.5 m 8.5625,49 c -0.0834,1.374998 -0.52089,2.520831 -1.3125,3.4375 -0.83338,0.916662 -1.77088,1.520828 -2.8125,1.8125 -0.33338,0.08333 -0.56255,-6e-6 -0.6875,-0.25 -0.16671,-0.500005 -0.68755,-1.062504 -1.5625,-1.6875 -0.70838,-0.54167 -1.87504,-1.125002 -3.5,-1.75 -0.50004,-0.08334 -0.72921,-0.333335 -0.6875,-0.75 0.0416,-0.375001 0.33329,-0.541667 0.875,-0.5 1.08329,0.04167 2.37495,0.124999 3.875,0.25 1.45829,0.04167 2.33328,-0.02083 2.625,-0.1875 0.12495,-0.166667 0.18745,-0.520833 0.1875,-1.0625 l 0,-31.625 -1.625,0 c -1.12505,3.2e-5 -2.39588,0.145865 -3.8125,0.4375 -0.20838,0.0417 -0.33338,3.2e-5 -0.375,-0.125 -0.54171,-0.791634 -1.02088,-1.5208 -1.4375,-2.1875 -0.25004,-0.416632 -0.10421,-0.562466 0.4375,-0.4375 2.54162,0.208367 3.95829,0.333367 4.25,0.375 l 3.8125,0 c 0.24995,3.4e-5 0.49995,-0.145799 0.75,-0.4375 l 2.25,-2.5625 c 0.29161,-0.291629 0.58328,-0.291629 0.875,0 1.08328,1.083369 1.99994,2.083368 2.75,3 0.45828,0.583367 0.54161,1.083366 0.25,1.5 -0.20839,0.250032 -0.58339,0.395865 -1.125,0.4375 l -4,0 0,32.3125"
         id="path3107-79"
         inkscape:connector-curvature="0"
         sodipodi:nodetypes="ccccccccccccccccccccccccccccccccccccccccc" />
    </g>
    <g
       style="font-size:64px;font-style:normal;font-variant:normal;font-weight:300;font-stretch:normal;text-align:start;line-height:125%;letter-spacing:0px;word-spacing:0px;writing-mode:lr-tb;text-anchor:start;fill:#000000;fill-opacity:1;stroke:none;font-family:AR PL UMing TW;-inkscape-font-specification:AR PL UMing TW Light"
       id="text3099"
       transform="translate(-30.727272,-7.4545451)">
      <path
         d="m 60.34659,46.113632 c -0.12501,1.291684 -0.20835,2.520849 -0.25,3.6875 -0.41668,4.041677 -1.14585,7.625007 -2.1875,10.75 -1.08334,3.166668 -2.39584,5.770832 -3.937501,7.8125 -0.375003,0.374996 -0.708336,0.416662 -1,0.125 -0.250002,-0.375004 -0.229168,-0.770836 0.0625,-1.1875 1.208331,-2.291667 2.145821,-4.895831 2.812501,-7.8125 0.66666,-3.041659 1.14582,-6.583322 1.4375,-10.625 0.24999,-3.791647 0.37499,-7.749977 0.375,-11.875 l 0,-4.9375 c -10e-6,-1.624966 -0.0833,-2.958298 -0.25,-4 -1.04168,0.875036 -2.14584,1.750035 -3.3125,2.625 -0.583337,0.4167 -1.000003,0.437533 -1.250001,0.0625 -0.250002,-0.416632 -0.166668,-0.812465 0.25,-1.1875 3.249991,-2.916629 5.895821,-5.958292 7.937501,-9.125 1.83332,-2.833286 3.33332,-6.083283 4.5,-9.75 0.12498,-0.374946 0.37498,-0.479112 0.75,-0.3125 1.54165,0.708387 2.83331,1.333386 3.87499,1.875 0.49998,0.291719 0.68748,0.562552 0.5625,0.8125 -0.0833,0.166718 -0.20835,0.270885 -0.375,0.3125 -0.54168,0.04172 -0.93752,0.125051 -1.18749,0.25 4.37497,2.000049 7.87497,4.062547 10.49999,6.1875 1.91664,1.54171 2.93747,2.833375 3.0625,3.875 0.2083,0.958373 0.0625,1.770872 -0.4375,2.4375 -0.50003,0.708371 -0.87503,1.083371 -1.125,1.125 -0.2917,0.0417 -0.64586,-0.333296 -1.0625,-1.125 -1.79169,-2.541626 -3.64586,-4.749957 -5.5625,-6.625 -2.20835,-2.166619 -4.39585,-3.833284 -6.56249,-5 -0.25002,0.333383 -0.52085,0.770883 -0.8125,1.3125 -2.25002,3.708378 -4.25002,6.562542 -6,8.5625 -0.87501,0.958373 -1.83335,1.937538 -2.875,2.9375 l 0.0625,0.0625 c 0.74999,0.95837 1.64582,1.895869 2.6875,2.8125 l 6.625,0 c -2e-5,-0.249965 0.0208,-0.458298 0.0625,-0.625 0.12498,-1.583297 0.0417,-3.020795 -0.25,-4.3125 -0.29169,-1.208293 -0.81252,-2.562458 -1.5625,-4.0625 -0.16669,-0.33329 -0.12502,-0.583289 0.125,-0.75 0.24998,-0.166622 0.58331,-0.04162 1,0.375 1.74998,1.541709 2.99997,2.958374 3.74999,4.25 0.49998,0.791705 0.72915,1.500038 0.6875,2.125 -0.0833,0.83337 -0.58335,1.750036 -1.5,2.75 -0.12502,0.125035 -0.20835,0.208368 -0.25,0.25 l 4.6875,0 c 0.24998,3.4e-5 0.43748,-0.0833 0.5625,-0.25 l 1.125,-1.75 c 0.29164,-0.333297 0.58331,-0.35413 0.875,-0.0625 1.20831,0.791702 2.39581,1.645868 3.5625,2.5625 0.37497,0.333367 0.54164,0.583367 0.5,0.75 -0.0834,0.208366 -0.27086,0.395866 -0.5625,0.5625 -1.08336,0.500032 -1.64586,0.895865 -1.6875,1.1875 -0.0834,0.250031 -0.12503,0.520864 -0.125,0.8125 l 0,7.25 c -3e-5,1.500022 0.12497,3.520853 0.375,6.0625 0.0416,0.45835 -0.0625,0.70835 -0.3125,0.75 -1.79169,0.625016 -2.77086,0.916682 -2.9375,0.875 -0.0834,-0.04165 -0.12502,-0.270817 -0.125,-0.6875 l 0,-2.125 -15.31249,0 m 0.125,-1.9375 15.18749,0 0,-5.3125 -15.06249,0 c -0.0417,1.875024 -0.0833,3.645855 -0.125,5.3125 m 15.18749,-12.0625 -14.99999,0 0,4.8125 14.99999,0 0,-4.8125 m -14.99999,22.25 c -0.0417,-1.083322 -0.0833,-2.020821 -0.125,-2.8125 -10e-6,-0.374987 0.0833,-0.58332 0.25,-0.625 0.16665,-0.124986 0.43749,1.4e-5 0.8125,0.375 0.54165,0.541679 1.18748,1.083346 1.9375,1.625 l 10.62499,0 c 0.24998,1.2e-5 0.43748,-0.08332 0.5625,-0.25 l 1.125,-1.75 c 0.29164,-0.333319 0.58331,-0.354153 0.875,-0.0625 1.20831,0.79168 2.39581,1.645845 3.5625,2.5625 0.37497,0.333344 0.54164,0.583344 0.5,0.75 -0.0834,0.208344 -0.27086,0.395843 -0.5625,0.5625 -1.08336,0.500009 -1.64586,0.895842 -1.6875,1.1875 -0.0834,0.250008 -0.12503,0.520841 -0.125,0.8125 l 0,5.25 c -3e-5,1.500001 0.12497,3.520832 0.375,6.0625 0.0416,0.458329 -0.0625,0.708329 -0.3125,0.75 -1.79169,0.624995 -2.77086,0.916662 -2.9375,0.875 -0.0834,-0.04167 -0.12502,-0.270838 -0.125,-0.6875 l 0,-3.125 -11.74999,0 0,2.1875 c -0.0417,0.33333 -0.14585,0.520829 -0.3125,0.5625 -0.41668,0.166662 -1.08335,0.437496 -2,0.8125 -0.62501,0.249995 -0.91668,0.166662 -0.875,-0.25 0.0833,-1.083337 0.14582,-2.145836 0.1875,-3.1875 l 0,-11.625 m 14.74999,0.5 -11.74999,0 0,9.0625 11.74999,0 0,-9.0625"
         id="path3104"
         inkscape:connector-curvature="0"
         sodipodi:nodetypes="ccccccccssccccccccccccccccccccccccccccccccccccccccccccccccccccccccccccccccccccccccccccccccccccccccccc"
         style="fill:#ffff00" />
    </g>
  </g>
</svg>
