<?xml version="1.0" encoding="UTF-8" standalone="no"?>
<!-- Created with Inkscape (http://www.inkscape.org/) -->

<svg
   xmlns:dc="http://purl.org/dc/elements/1.1/"
   xmlns:cc="http://creativecommons.org/ns#"
   xmlns:rdf="http://www.w3.org/1999/02/22-rdf-syntax-ns#"
   xmlns:svg="http://www.w3.org/2000/svg"
   xmlns="http://www.w3.org/2000/svg"
   xmlns:sodipodi="http://sodipodi.sourceforge.net/DTD/sodipodi-0.dtd"
   xmlns:inkscape="http://www.inkscape.org/namespaces/inkscape"
   width="64px"
   height="64px"
   id="svg3147"
   version="1.1"
   inkscape:version="0.48.0 r9654"
   sodipodi:docname="新文件 6">
  <defs
     id="defs3149" />
  <sodipodi:namedview
     id="base"
     pagecolor="#ffffff"
     bordercolor="#666666"
     borderopacity="1.0"
     inkscape:pageopacity="0.0"
     inkscape:pageshadow="2"
     inkscape:zoom="5.6568542"
     inkscape:cx="83.737504"
     inkscape:cy="19.901389"
     inkscape:current-layer="text3155"
     showgrid="true"
     inkscape:document-units="px"
     inkscape:grid-bbox="true"
     inkscape:window-width="1280"
     inkscape:window-height="722"
     inkscape:window-x="0"
     inkscape:window-y="24"
     inkscape:window-maximized="1" />
  <metadata
     id="metadata3152">
    <rdf:RDF>
      <cc:Work
         rdf:about="">
        <dc:format>image/svg+xml</dc:format>
        <dc:type
           rdf:resource="http://purl.org/dc/dcmitype/StillImage" />
        <dc:title></dc:title>
      </cc:Work>
    </rdf:RDF>
  </metadata>
  <g
     id="layer1"
     inkscape:label="Layer 1"
     inkscape:groupmode="layer">
    <g
       style="font-size:64px;font-style:normal;font-variant:normal;font-weight:300;font-stretch:normal;text-align:start;line-height:125%;letter-spacing:0px;word-spacing:0px;writing-mode:lr-tb;text-anchor:start;fill:#0000ff;fill-opacity:1;stroke:none;font-family:AR PL UMing TW;-inkscape-font-specification:AR PL UMing TW Light"
       id="text3155">
      <path
         d="m 21.193182,25.107956 c 1.083311,1.083364 1.999976,2.083363 2.75,3 0.458309,0.583361 0.541642,1.083361 0.25,1.5 -0.208358,0.250027 -0.583357,0.39586 -1.125,0.4375 l -8,0 0,15.25 c 3.041648,-0.916655 5.833312,-1.77082 8.375,-2.5625 0.583309,-0.208319 0.937475,-0.124986 1.0625,0.25 0.124975,0.458346 -0.145858,0.812513 -0.8125,1.0625 -5.583352,2.541677 -10.208347,4.500008 -13.8750002,5.875 -0.8333425,0.375006 -1.9583414,1.145839 -3.375,2.3125 -0.1666731,0.166671 -0.3333396,0.270837 -0.5,0.3125 -0.2083392,4e-6 -0.395839,-0.145829 -0.5625,-0.4375 -0.500005,-1.041661 -1.2083377,-1.958327 -2.125,-2.75 -0.5416695,-0.416659 -0.7916693,-0.687492 -0.75,-0.8125 0.083331,-0.166659 0.3333303,-0.270825 0.75,-0.3125 2.5833273,-0.416658 5.3749912,-1.062491 8.3750002,-1.9375 0.124988,-0.08332 0.270821,-0.12499 0.4375,-0.125 l 0,-16.125 -2.8750002,0 c -1.1250082,2.6e-5 -2.3958403,0.14586 -3.8125,0.4375 -0.2083387,0.04169 -0.3333385,2.6e-5 -0.375,-0.125 -0.5416713,-0.79164 -1.0208375,-1.520806 -1.4375,-2.1875 -0.2500035,-0.416638 -0.1041703,-0.562471 0.4375,-0.4375 2.54166,0.208362 3.9583252,0.333362 4.25,0.375 l 3.8125002,0 0,-15.0625 -3.3750002,0 c -1.1250077,4.3e-5 -2.3958398,0.145877 -3.8125,0.4375 -0.2083382,0.04171 -0.333338,4.3e-5 -0.375,-0.125 -0.5416708,-0.791623 -1.020837,-1.520789 -1.4375,-2.1875 -0.250003,-0.416621 -0.1041698,-0.562454 0.4375,-0.4375 2.5416605,0.208379 3.9583257,0.333379 4.25,0.375 l 10.5625002,0 c 0.249981,4.5e-5 0.499981,-0.145788 0.75,-0.4375 l 2.25,-2.5625001 c 0.291645,-0.2916179 0.583311,-0.2916179 0.875,0 1.08331,1.0833807 1.999975,2.0833801 2.75,3.0000001 0.458308,0.583378 0.541641,1.083378 0.25,1.5 -0.208359,0.250044 -0.583358,0.395877 -1.125,0.4375 l -9,0 0,15.0625 2.25,0 c 0.249982,2.8e-5 0.499982,-0.145805 0.75,-0.4375 l 2.25,-2.5625 c 0.208312,-0.249968 0.458312,-0.291635 0.75,-0.125 z"
         id="path3160"
         inkscape:connector-curvature="0"
         sodipodi:nodetypes="ccccccccccccccccccccccccccccccccccccccccccccccc" />
      <path
         d="m 27.193182,45.045456 c -1.125026,1.1e-5 -2.395858,0.145845 -3.8125,0.4375 -0.208357,0.04168 -0.333357,1.1e-5 -0.375,-0.125 -0.541689,-0.791655 -1.020856,-1.520821 -1.4375,-2.1875 -0.250022,-0.416653 -0.104188,-0.562486 0.4375,-0.4375 2.541642,0.208347 3.958307,0.333347 4.25,0.375 l 3.1875,0 0,-14.3125 -2,0 c -1.125027,2.8e-5 -2.395859,0.145861 -3.8125,0.4375 -0.208357,0.04169 -0.333357,2.7e-5 -0.375,-0.125 -0.54169,-0.791639 -1.020856,-1.520804 -1.4375,-2.1875 -0.250022,-0.416637 -0.104189,-0.56247 0.4375,-0.4375 2.541642,0.208363 3.958307,0.333363 4.25,0.375 l 2.9375,0 0,-14.0625 -0.4375,0 c -0.541695,1.041709 -1.083362,2.145875 -1.625,3.3125 -1.125027,2.000038 -2.520859,4.14587 -4.1875,6.4375 -0.375023,0.458367 -0.708356,0.562533 -1,0.3125 -0.291689,-0.291633 -0.291689,-0.645799 0,-1.0625 1.833309,-2.958296 3.374974,-6.520792 4.625,-10.6875 1.249972,-4.1249505 1.854138,-6.8332811 1.8125,-8.1250001 -2.9e-5,-0.7499457 0.374971,-0.9374455 1.125,-0.5625 1.624968,0.8333867 2.7708,1.458386 3.4375,1.875 0.499966,0.2917187 0.749966,0.5625517 0.75,0.8125 -3.4e-5,0.1250513 -0.270867,0.2500512 -0.8125,0.375 -0.458366,0.1667176 -0.770866,0.3333841 -0.9375,0.5 -0.291699,0.291717 -0.750032,1.2083827 -1.375,2.75 -0.333364,0.6667138 -0.645864,1.3750461 -0.9375,2.1250001 l 22.437498,0 c 0.54162,4.6e-5 1.02078,-0.249954 1.4375,-0.75 l 2.1875,-2.5625001 c 0.37495,-0.333284 0.70828,-0.3541173 1,-0.0625 1.08328,1.1667146 2.02078,2.2708802 2.8125,3.3125001 0.45827,0.625045 0.62494,1.125045 0.5,1.5 -0.12506,0.291711 -0.50006,0.458377 -1.125,0.5 l -5.625,0 0,14.0625 0.5625,0 c 0.24995,3e-5 0.49995,-0.145804 0.75,-0.4375 l 2.25,-2.5625 c 0.29161,-0.291634 0.58328,-0.291634 0.875,0 1.08328,1.083365 1.99994,2.083364 2.75,3 0.45827,0.583362 0.54161,1.083362 0.25,1.5 -0.20839,0.250028 -0.58339,0.395861 -1.125,0.4375 l -6.3125,0 0,14.3125 0.8125,0 c 0.24995,1.3e-5 0.49995,-0.14582 0.75,-0.4375 l 2.25,-2.5625 c 0.29161,-0.29165 0.58328,-0.29165 0.875,0 1.08328,1.083349 1.99994,2.083348 2.75,3 0.45827,0.583346 0.54161,1.083346 0.25,1.5 -0.20839,0.250012 -0.58339,0.395845 -1.125,0.4375 l -32.874998,0 m 5.0625,-16.25 0,14.3125 4.187498,0 0,-14.3125 -4.187498,0 m 6.999998,0 0,14.3125 4.4375,0 0,-14.3125 -4.4375,0 m 7.25,0 0,14.3125 4.1875,0 0,-14.3125 -4.1875,0 m 0,-16 0,14.0625 4.1875,0 0,-14.0625 -4.1875,0 m -7.25,0 0,14.0625 4.4375,0 0,-14.0625 -4.4375,0 m -6.999998,0 0,14.0625 4.187498,0 0,-14.0625 -4.187498,0 m -5,35.5 c 0.04164,-0.416658 0.208306,-0.604158 0.5,-0.5625 0.333305,9e-6 0.499971,0.208342 0.5,0.625 0.166638,2.875005 -0.08336,5.395836 -0.75,7.5625 -0.83336,2.291665 -1.812526,3.95833 -2.9375,5 -0.750024,0.541662 -1.395857,0.791661 -1.9375,0.75 -0.583356,-0.125005 -1.020855,-0.375005 -1.3125,-0.75 -0.250021,-0.333337 -0.354188,-0.812504 -0.3125,-1.4375 0.08331,-0.625002 0.458312,-1.145835 1.125,-1.5625 1.20831,-0.833334 2.270809,-2.020833 3.1875,-3.5625 0.874973,-1.624996 1.520806,-3.645828 1.9375,-6.0625 m 6.25,1.3125 c -0.1667,-0.458326 -0.1042,-0.770826 0.1875,-0.9375 0.416632,-0.208325 0.770799,-0.04166 1.0625,0.5 1.874968,2.708338 3.145798,5.083336 3.812498,7.125 0.49996,1.416665 0.62496,2.437498 0.375,3.0625 -0.4167,0.916663 -1.02087,1.520829 -1.8125,1.8125 -0.7917,0.208328 -1.312534,0.291662 -1.562498,0.25 -0.208369,-0.125005 -0.291702,-0.645838 -0.25,-1.5625 0.0833,-1.916668 -0.02087,-3.645833 -0.3125,-5.1875 -0.333368,-1.95833 -0.833368,-3.645828 -1.5,-5.0625 m 8.874998,0 c -0.25004,-0.374993 -0.22921,-0.708326 0.0625,-1 0.33329,-0.291659 0.70829,-0.187492 1.125,0.3125 2.37496,2.500005 4.08329,4.770836 5.125,6.8125 0.79162,1.374999 1.10412,2.395832 0.9375,3.0625 -0.25005,0.999997 -0.75005,1.687496 -1.5,2.0625 -0.70838,0.416662 -1.18755,0.604162 -1.4375,0.5625 -0.29171,-0.08334 -0.45838,-0.583338 -0.5,-1.5 -0.33338,-1.958335 -0.77088,-3.75 -1.3125,-5.375 -0.66671,-1.999996 -1.50004,-3.645828 -2.5,-4.9375 m 10.5625,0 c -0.29172,-0.374993 -0.29172,-0.708326 0,-1 0.33328,-0.333325 0.70828,-0.249992 1.125,0.25 2.58328,2.416672 4.49994,4.645836 5.75,6.6875 0.91661,1.458333 1.31244,2.520832 1.1875,3.1875 -0.20839,0.999997 -0.64589,1.708329 -1.3125,2.125 -0.70839,0.458328 -1.20839,0.666662 -1.5,0.625 -0.25006,-0.04167 -0.43756,-0.520838 -0.5625,-1.4375 -0.45839,-2.000002 -1.02089,-3.833333 -1.6875,-5.5 -0.83339,-1.999996 -1.83339,-3.645828 -3,-4.9375"
         id="path3162"
         inkscape:connector-curvature="0"
         sodipodi:nodetypes="ccccccccccccccccccccccccccccccccccccccccccccccccccccccccccccccccccccccccccccccccccccccccccccccccccccccccccccccccccccccccccccccc" />
    </g>
  </g>
</svg>
