<?xml version="1.0" encoding="UTF-8" standalone="no"?>
<!-- Created with Inkscape (http://www.inkscape.org/) -->

<svg
   xmlns:dc="http://purl.org/dc/elements/1.1/"
   xmlns:cc="http://creativecommons.org/ns#"
   xmlns:rdf="http://www.w3.org/1999/02/22-rdf-syntax-ns#"
   xmlns:svg="http://www.w3.org/2000/svg"
   xmlns="http://www.w3.org/2000/svg"
   xmlns:sodipodi="http://sodipodi.sourceforge.net/DTD/sodipodi-0.dtd"
   xmlns:inkscape="http://www.inkscape.org/namespaces/inkscape"
   width="64px"
   height="64px"
   id="svg3004"
   version="1.1"
   inkscape:version="0.48.0 r9654"
   sodipodi:docname="qhcj.svg">
  <defs
     id="defs3006" />
  <sodipodi:namedview
     id="base"
     pagecolor="#ffffff"
     bordercolor="#666666"
     borderopacity="1.0"
     inkscape:pageopacity="0.0"
     inkscape:pageshadow="2"
     inkscape:zoom="5.5"
     inkscape:cx="32"
     inkscape:cy="32"
     inkscape:current-layer="layer1"
     showgrid="true"
     inkscape:document-units="px"
     inkscape:grid-bbox="true"
     inkscape:window-width="1280"
     inkscape:window-height="722"
     inkscape:window-x="0"
     inkscape:window-y="24"
     inkscape:window-maximized="1" />
  <metadata
     id="metadata3009">
    <rdf:RDF>
      <cc:Work
         rdf:about="">
        <dc:format>image/svg+xml</dc:format>
        <dc:type
           rdf:resource="http://purl.org/dc/dcmitype/StillImage" />
        <dc:title />
      </cc:Work>
    </rdf:RDF>
  </metadata>
  <g
     id="layer1"
     inkscape:label="Layer 1"
     inkscape:groupmode="layer">
    <g
       style="font-size:64px;font-style:normal;font-variant:normal;font-weight:300;font-stretch:normal;text-align:start;line-height:125%;letter-spacing:0px;word-spacing:0px;writing-mode:lr-tb;text-anchor:start;fill:#0000ff;fill-opacity:1;stroke:none;font-family:AR PL UMing TW;-inkscape-font-specification:AR PL UMing TW Light"
       id="text3012">
      <path
         d="m 30.630682,38.113636 c -0.166697,1.500017 -0.333364,2.937515 -0.5,4.3125 -0.666696,4.12501 -1.895862,7.750006 -3.6875,10.875 -1.875025,3.166667 -4.125023,5.812497 -6.75,7.9375 -0.416686,0.291662 -0.750019,0.291662 -1,0 -0.291685,-0.375004 -0.250019,-0.770837 0.125,-1.1875 2.374978,-2.375001 4.27081,-5.020832 5.6875,-7.9375 1.333307,-2.958326 2.270806,-6.499989 2.8125,-10.625 0.499972,-3.833315 0.749972,-7.833311 0.75,-12 l 0,-4.9375 c -2.8e-5,-1.499967 -0.06253,-2.749965 -0.1875,-3.75 -1.70836,1.333368 -3.583358,2.645866 -5.625,3.9375 -0.458355,0.166698 -0.812522,0.229198 -1.0625,0.1875 1.083311,1.083364 1.999976,2.083363 2.75,3 0.458309,0.583361 0.541642,1.083361 0.25,1.5 -0.208358,0.250027 -0.583357,0.39586 -1.125,0.4375 l -8,0 0,15.25 c 3.041648,-0.916654 5.833312,-1.77082 8.375,-2.5625 0.583309,-0.208319 0.937475,-0.124986 1.0625,0.25 0.124975,0.458346 -0.145858,0.812513 -0.8125,1.0625 -5.583352,2.541677 -10.208347,4.500008 -13.8750001,5.875 -0.8333425,0.375006 -1.9583414,1.145839 -3.375,2.3125 -0.1666732,0.166671 -0.3333397,0.270837 -0.5,0.3125 -0.2083393,4e-6 -0.3958391,-0.145829 -0.5625,-0.4375 -0.5000051,-1.041661 -1.2083377,-1.958327 -2.125,-2.75 -0.5416696,-0.416659 -0.7916694,-0.687492 -0.75,-0.8125 0.083331,-0.166658 0.3333303,-0.270825 0.75,-0.3125 2.5833273,-0.416658 5.3749911,-1.062491 8.3750001,-1.9375 0.124988,-0.08332 0.270821,-0.12499 0.4375,-0.125 l 0,-16.125 -2.8750001,0 c -1.1250083,2.7e-5 -2.3958404,0.14586 -3.8125,0.4375 -0.2083387,0.04169 -0.3333386,2.6e-5 -0.375,-0.125 -0.5416714,-0.79164 -1.0208375,-1.520806 -1.4375,-2.1875 -0.2500035,-0.416638 -0.1041704,-0.562471 0.4375,-0.4375 2.5416599,0.208362 3.9583251,0.333362 4.25,0.375 l 3.8125001,0 0,-15.0625 -3.3750001,0 c -1.1250078,4.4e-5 -2.3958399,0.145877 -3.8125,0.4375 -0.2083382,0.04171 -0.3333381,4.3e-5 -0.375,-0.125 -0.5416709,-0.791623 -1.020837,-1.520789 -1.4375,-2.1875 -0.250003,-0.416621 -0.1041699,-0.562454 0.4375,-0.4375 2.5416604,0.208379 3.9583256,0.333379 4.25,0.375 l 10.5625001,0 c 0.249981,4.5e-5 0.499981,-0.145788 0.75,-0.4375 l 2.25,-2.5625 c 0.291645,-0.2916179 0.583311,-0.2916179 0.875,0 1.08331,1.0833807 1.999975,2.08338 2.75,3 0.458308,0.583378 0.541641,1.083378 0.25,1.5 -0.208359,0.250044 -0.583358,0.395877 -1.125,0.4375 l -9,0 0,15.0625 2.25,0 c 0.249982,2.8e-5 0.499982,-0.145805 0.75,-0.4375 l 2.25,-2.5625 c 0.208312,-0.249968 0.458312,-0.291635 0.75,-0.125 l -0.0625,-0.0625 c -0.208354,-0.458301 -0.104188,-0.833301 0.3125,-1.125 4.124974,-3.083297 7.583304,-6.374961 10.375,-9.875 2.458299,-3.083288 4.583297,-6.7499506 6.375,-11 0.166628,-0.374946 0.437461,-0.4791125 0.8125,-0.3125 1.416626,0.7917198 2.645791,1.5208858 3.6875,2.1875 0.45829,0.3750514 0.624956,0.6458845 0.5,0.8125 -0.125043,0.2083841 -0.270876,0.3125506 -0.4375,0.3125 -0.333376,0.041717 -0.583376,0.083384 -0.75,0.125 1.166623,1.833382 2.437455,3.3750471 3.8125,4.625 2.124952,1.916711 4.812449,3.687542 8.0625,5.3125 2.66661,1.333373 5.020774,2.208372 7.0625,2.625 0.208272,0.08337 0.499938,0.145871 0.875,0.1875 0.208271,0.0417 0.312438,0.208371 0.3125,0.5 -6.2e-5,0.291704 -0.125062,0.45837 -0.375,0.5 -0.833394,0.20837 -1.583394,0.52087 -2.25,0.9375 -0.916725,0.541702 -1.458392,1.020868 -1.625,1.4375 -0.125058,0.250034 -0.437558,0.229201 -0.9375,-0.0625 -3.958387,-2.29163 -7.208383,-4.645794 -9.75,-7.0625 -2.541712,-2.374956 -4.708376,-5.2082866 -6.5,-8.5 -0.333374,0.2917164 -0.833373,0.9375491 -1.5,1.9375 -3.000036,4.166711 -5.625034,7.375041 -7.875,9.625 -0.791697,0.750038 -1.583363,1.45837 -2.375,2.125 0.666637,0.791702 1.437469,1.583368 2.3125,2.375 l 9.5,0 c -4.1e-5,-0.166633 -4.1e-5,-0.270799 0,-0.3125 -0.208374,-1.541631 -0.62504,-2.874963 -1.25,-4 -0.583372,-1.041627 -1.395872,-2.18746 -2.4375,-3.4375 -0.166704,-0.291625 -0.166704,-0.562458 0,-0.8125 0.166629,-0.208291 0.499962,-0.166624 1,0.125 1.99996,1.041708 3.520792,2.06254 4.5625,3.0625 0.666623,0.666705 1.062456,1.270871 1.1875,1.8125 0.124956,0.875037 -0.145877,1.895869 -0.8125,3.0625 -0.16671,0.166701 -0.270876,0.333367 -0.3125,0.5 l 7.3125,0 c 0.208283,3.4e-5 0.395783,-0.124966 0.5625,-0.375 l 0.875,-0.875 c 0.166615,-0.208298 0.333281,-0.312464 0.5,-0.3125 0.166614,0.0417 0.333281,0.145869 0.5,0.3125 0.83328,0.666701 1.770779,1.437534 2.8125,2.3125 0.208278,0.166699 0.291611,0.312533 0.25,0.4375 -0.08339,0.125032 -0.208389,0.187532 -0.375,0.1875 -0.458388,0.0417 -0.687555,0.333365 -0.6875,0.875 l 0,13.9375 c -0.04172,0.375017 -0.145888,0.58335 -0.3125,0.625 -1.125053,0.33335 -1.875052,0.52085 -2.25,0.5625 -0.333385,0.08335 -0.479218,-0.06248 -0.4375,-0.4375 l 0,-1.5625 -20.6875,0 m 0.1875,-1.9375 20.5,0 0,-5.0625 -20.3125,0 c -3.1e-5,1.708357 -0.06253,3.395855 -0.1875,5.0625 m 20.5,-11.8125 -20.25,0 0,4.8125 20.25,0 0,-4.8125 m -0.5,19.3125 c 0.249949,1.3e-5 0.437448,-0.08332 0.5625,-0.25 l 1.125,-1.75 c 0.291614,-0.333318 0.58328,-0.354152 0.875,-0.0625 1.208278,0.791681 2.395777,1.645846 3.5625,2.5625 0.374942,0.333345 0.541609,0.583345 0.5,0.75 -0.08339,0.208345 -0.270891,0.395844 -0.5625,0.5625 -1.083389,0.50001 -1.645889,0.895843 -1.6875,1.1875 -0.08339,0.250009 -0.125055,0.520843 -0.125,0.8125 l 0,6.5 c -5.5e-5,1.500001 0.124944,3.520832 0.375,6.0625 0.04161,0.458329 -0.06256,0.708329 -0.3125,0.75 -1.79172,0.624995 -2.770886,0.916661 -2.9375,0.875 -0.08339,-0.04167 -0.125052,-0.270838 -0.125,-0.6875 l 0,-4.125 -17,0 0,3.4375 c -0.0417,0.333329 -0.145869,0.520829 -0.3125,0.5625 -0.416701,0.166662 -1.083367,0.437495 -2,0.8125 -0.625032,0.249994 -0.916699,0.166661 -0.875,-0.25 0.0833,-1.083337 0.145801,-2.145836 0.1875,-3.1875 l 0,-13.125 c -0.0417,-1.083321 -0.08337,-2.02082 -0.125,-2.8125 -3.2e-5,-0.374986 0.0833,-0.583319 0.25,-0.625 0.166634,-0.124985 0.437467,1.5e-5 0.8125,0.375 0.541633,0.54168 1.187465,1.083347 1.9375,1.625 l 15.875,0 m 1.25,1.9375 -17,0 0,9.3125 17,0 0,-9.3125"
         style=""
         id="path3032" />
    </g>
  </g>
</svg>
