<?xml version="1.0" encoding="UTF-8" standalone="no"?>
<!-- Created with Inkscape (http://www.inkscape.org/) -->

<svg
   xmlns:dc="http://purl.org/dc/elements/1.1/"
   xmlns:cc="http://creativecommons.org/ns#"
   xmlns:rdf="http://www.w3.org/1999/02/22-rdf-syntax-ns#"
   xmlns:svg="http://www.w3.org/2000/svg"
   xmlns="http://www.w3.org/2000/svg"
   xmlns:sodipodi="http://sodipodi.sourceforge.net/DTD/sodipodi-0.dtd"
   xmlns:inkscape="http://www.inkscape.org/namespaces/inkscape"
   width="64px"
   height="64px"
   id="svg3004"
   version="1.1"
   inkscape:version="0.48.5 r10040"
   sodipodi:docname="qhcj.svg">
  <defs
     id="defs3006" />
  <sodipodi:namedview
     id="base"
     pagecolor="#ffffff"
     bordercolor="#666666"
     borderopacity="1.0"
     inkscape:pageopacity="0.0"
     inkscape:pageshadow="2"
     inkscape:zoom="5.5"
     inkscape:cx="32"
     inkscape:cy="34.809659"
     inkscape:current-layer="layer1"
     showgrid="true"
     inkscape:document-units="px"
     inkscape:grid-bbox="true"
     inkscape:window-width="1375"
     inkscape:window-height="876"
     inkscape:window-x="65"
     inkscape:window-y="24"
     inkscape:window-maximized="1" />
  <metadata
     id="metadata3009">
    <rdf:RDF>
      <cc:Work
         rdf:about="">
        <dc:format>image/svg+xml</dc:format>
        <dc:type
           rdf:resource="http://purl.org/dc/dcmitype/StillImage" />
        <dc:title></dc:title>
      </cc:Work>
    </rdf:RDF>
  </metadata>
  <g
     id="layer1"
     inkscape:label="Layer 1"
     inkscape:groupmode="layer">
    <path
       style="fill:#0000ff;fill-opacity:1"
       d="m 25.073918,59.487425 c -0.05183,-0.08301 0.0052,-2.24243 0.126718,-4.798687 0.315246,-6.631183 0.311853,-45.9203188 -0.0041,-48.2018217 -0.123813,-0.8938819 -0.186322,-1.6636441 -0.13891,-1.7105834 0.04742,-0.046942 0.590602,0.3530608 1.207084,0.8888867 l 1.120878,0.9742301 14.299226,0 c 8.996843,0 14.417981,-0.062922 14.619474,-0.1696765 0.176138,-0.09332 0.752509,-0.6149874 1.280819,-1.1592554 l 0.960567,-0.9895789 0.501542,0.319249 c 1.154503,0.7348879 3.389209,2.5544159 3.389209,2.7595366 0,0.1219272 -0.441295,0.5225764 -0.980655,0.8903309 -0.539361,0.3677554 -1.09726,0.844831 -1.239777,1.0601663 -0.226856,0.3427585 -0.24653,3.2787533 -0.157994,23.5731963 0.05564,12.749922 0.121311,23.605887 0.145962,24.124369 l 0.04486,0.942692 -1.379617,0.589574 c -1.103622,0.471627 -1.409427,0.542998 -1.52866,0.356756 -0.08201,-0.128051 -0.150255,-1.343847 -0.151728,-2.70177 l -0.0029,-2.468951 -14.438388,0 -14.438388,0 0,2.064945 c 0,1.135721 -0.05075,2.19587 -0.112773,2.355887 -0.166687,0.430033 -2.943907,1.586704 -3.122576,1.300505 l 0,0 z m 32.112121,-29.284656 0,-21.8307228 -4.462771,0 -4.462774,0 0,13.9375828 c 0,16.129795 -0.224169,14.494564 1.958577,14.287224 0.765427,-0.0727 1.695409,-0.304022 2.315693,-0.575982 l 1.036573,-0.454481 0.451021,0.418285 c 0.248061,0.230057 0.903862,0.701926 1.457334,1.048598 1.072598,0.671836 1.285372,1.152654 0.657312,1.485415 -0.883726,0.468226 -3.812127,0.89579 -6.330954,0.924358 -2.812199,0.03189 -3.048866,-0.03877 -3.897388,-1.163719 -0.356908,-0.473179 -0.361353,-0.638534 -0.408421,-15.192832 l -0.04759,-14.7144488 -3.21583,0 -3.215831,0 -0.08729,7.5801128 c -0.06366,5.529031 -0.163614,8.161981 -0.369369,9.730504 -1.059313,8.075418 -3.454372,14.219611 -6.903182,17.709164 -1.29497,1.310268 -1.820351,1.493423 -2.160963,0.753342 -0.171241,-0.372073 -0.144206,-0.50926 0.179256,-0.909612 3.832087,-4.743023 5.571942,-10.419651 6.331008,-20.656215 0.09539,-1.286452 0.173634,-5.009372 0.173868,-8.273149 l 4.25e-4,-5.9341468 -3.937742,0 -3.937743,0 0,21.8307228 0,21.830722 14.438388,0 14.438387,0 0,-21.830722 z"
       id="path3102"
       inkscape:connector-curvature="0" />
    <path
       style="fill:#0000ff;fill-opacity:1"
       d="M 4.8264325,52.646293 C 4.5406031,52.187068 3.84023,51.335753 3.2700477,50.754482 2.6998656,50.173211 2.3150357,49.647144 2.4148703,49.585442 c 0.099835,-0.0617 1.3932393,-0.357136 2.8742328,-0.656523 1.4809932,-0.299386 3.5108972,-0.769582 4.5108965,-1.044879 l 1.8181824,-0.500538 0.04734,-8.154336 0.04734,-8.154338 -2.9564327,0.09959 c -1.6260378,0.05477 -3.1742334,0.154381 -3.4404349,0.221347 -0.441814,0.111145 -0.5569623,0.0132 -1.3210233,-1.123651 -0.6681512,-0.994149 -0.7775884,-1.258009 -0.5424382,-1.307858 0.1620203,-0.03435 1.2108133,0.02702 2.3306512,0.136363 1.1198378,0.109346 2.9112812,0.198811 3.9809865,0.198811 l 1.9449174,0 0,-7.636363 0,-7.636364 -2.1363637,0.01371 c -1.175,0.0075 -2.8318182,0.111484 -3.6818182,0.230992 L 4.3454545,14.48869 3.488546,13.220666 C 3.0172463,12.523253 2.6512266,11.933053 2.6751689,11.909111 c 0.023942,-0.02394 0.818642,0.03141 1.7659994,0.123013 0.9473575,0.0916 4.463377,0.171396 7.8133777,0.177325 l 6.090909,0.01078 1.489217,-1.596762 c 1.278505,-1.3708333 1.535763,-1.5686601 1.818183,-1.398149 0.530284,0.3201611 3.089834,3.289867 3.200618,3.713502 0.06435,0.246078 -0.02649,0.515442 -0.248784,0.737741 -0.328029,0.328028 -0.65446,0.350143 -5.168325,0.350143 l -4.818182,0 0,7.636364 0,7.636363 1.318182,0.0052 1.318182,0.0052 1.583675,-1.687014 1.583676,-1.687013 1.393807,1.454546 c 3.28806,3.43133 3.034653,3.727263 -3.191682,3.727263 l -4.00584,0 0,7.636364 c 0,5.479371 0.05707,7.636363 0.202046,7.636363 0.111125,0 2.071378,-0.572727 4.356118,-1.272727 2.28474,-0.7 4.282751,-1.272727 4.440023,-1.272727 0.396886,0 0.55883,0.522314 0.253948,0.819056 -0.314468,0.306073 -7.210167,3.343784 -11.351765,5.000706 -3.4235987,1.369674 -4.0072427,1.672116 -5.6839649,2.945403 -0.6309771,0.47916 -1.2240088,0.871199 -1.317848,0.871199 -0.093839,0 -0.4044771,-0.375731 -0.6903066,-0.834957 z"
       id="path3106"
       inkscape:connector-curvature="0" />
  </g>
</svg>
